<svg width="235" height="235" viewBox="0 0 235 235" fill="none" xmlns="http://www.w3.org/2000/svg">
<mask id="mask0_121_1492" style="mask-type:luminance" maskUnits="userSpaceOnUse" x="14" y="20" width="209" height="198">
<path d="M19.5483 144.287C26.5592 133.671 36.6462 136.156 43.9733 123.665C44.8726 122.132 52.3012 108.993 48.4678 96.8007C44.1654 83.1158 30.5054 79.5413 29.3661 64.6689C29.3661 64.6689 29.0385 60.3934 30.2087 55.9776C36.4907 32.2724 106.619 6.11376 162.517 28.5865C169.803 31.516 191.275 40.4548 206.338 61.5083C223.137 84.9881 222.591 110.433 222.069 134.727C221.643 154.586 221.43 164.516 215.327 175.55C199.374 204.396 165.091 211.036 142.759 214.617C97.9045 221.811 28.1637 216.002 16.6617 179.69C14.1123 171.641 12.2732 155.303 19.5483 144.287Z" fill="white"/>
</mask>
<g mask="url(#mask0_121_1492)">
<path d="M239.314 15.6775H0.21875V201.048H239.314V15.6775Z" fill="#DFECF4"/>
</g>
<mask id="mask1_121_1492" style="mask-type:luminance" maskUnits="userSpaceOnUse" x="14" y="20" width="209" height="198">
<path d="M19.5483 144.287C26.5592 133.671 36.6462 136.156 43.9733 123.665C44.8726 122.132 52.3012 108.993 48.4678 96.8007C44.1654 83.1158 30.5054 79.5413 29.3661 64.6689C29.3661 64.6689 29.0385 60.3934 30.2087 55.9776C36.4907 32.2724 106.619 6.11376 162.517 28.5865C169.803 31.516 191.275 40.4548 206.338 61.5083C223.137 84.9881 222.591 110.433 222.069 134.727C221.643 154.586 221.43 164.516 215.327 175.55C199.374 204.396 165.091 211.036 142.759 214.617C97.9045 221.811 28.1637 216.002 16.6617 179.69C14.1123 171.641 12.2732 155.303 19.5483 144.287Z" fill="white"/>
</mask>
<g mask="url(#mask1_121_1492)">
<path d="M270.218 182.948H122.945H120.851H-26.4219V231.188H128.762L270.141 230.827L270.218 205.189V182.948Z" fill="#D8AB98"/>
<path d="M269.598 193.174H-26.9648V193.861H269.598V193.174Z" fill="#9D7F74"/>
<path d="M275.103 204.737H-21.459V205.424H275.103V204.737Z" fill="#9D7F74"/>
<path d="M205.13 183.295L204.559 183.466L215.767 234.314L216.339 234.143L205.13 183.295Z" fill="#9D7F74"/>
<path d="M31.4593 183.126L30.8789 183.251L39.0468 234.682L39.6272 234.557L31.4593 183.126Z" fill="#9D7F74"/>
<path d="M118.321 183.001L117.749 183.171L128.977 234.303L129.549 234.133L118.321 183.001Z" fill="#9D7F74"/>
<path d="M75.696 217.969C94.9024 217.969 110.472 216.46 110.472 214.597C110.472 212.735 94.9024 211.226 75.696 211.226C56.4897 211.226 40.9199 212.735 40.9199 214.597C40.9199 216.46 56.4897 217.969 75.696 217.969Z" fill="#9D7F74"/>
<path d="M165.968 213.271C185.174 213.271 200.744 211.762 200.744 209.9C200.744 208.038 185.174 206.528 165.968 206.528C146.761 206.528 131.191 208.038 131.191 209.9C131.191 211.762 146.761 213.271 165.968 213.271Z" fill="#9D7F74"/>
<path d="M190.423 217.638C209.629 217.638 225.199 216.128 225.199 214.266C225.199 212.404 209.629 210.894 190.423 210.894C171.216 210.894 155.646 212.404 155.646 214.266C155.646 216.128 171.216 217.638 190.423 217.638Z" fill="#9D7F74"/>
<path d="M95.8676 130.98H63.0811V158.572H95.8676V130.98Z" fill="#D8AB98"/>
<path d="M63.0808 130.98L55.0723 134.402L54.9805 158.572H63.0808V130.98Z" fill="#9D7F74"/>
<path d="M81.4235 145.214C81.4011 142.82 81.3521 140.422 81.2317 138.036C81.17 136.815 81.0938 135.597 81.002 134.381C80.966 133.906 80.9297 133.431 80.8837 132.958C80.8167 132.268 80.6809 131.698 80.5705 131.038C80.5475 130.901 80.4162 130.923 80.42 131.072C80.4365 131.688 80.4041 132.265 80.4439 132.89C80.4826 133.498 80.5274 134.105 80.5661 134.713C80.6402 135.874 80.6986 137.038 80.7458 138.203C80.843 140.594 80.9061 142.985 80.9271 145.381C80.9474 147.726 80.9347 150.07 80.9064 152.414C80.8914 153.642 80.8736 154.87 80.8548 156.098C80.8462 156.656 80.8371 157.214 80.8279 157.772C80.8191 158.309 80.7594 158.754 80.9342 159.218C80.9888 159.363 81.0986 159.349 81.1546 159.218C81.3317 158.806 81.2969 158.449 81.3075 157.939C81.3202 157.325 81.3326 156.712 81.3444 156.098C81.3683 154.87 81.3893 153.643 81.4043 152.414C81.4335 150.014 81.4459 147.614 81.4235 145.214Z" fill="#9D7F74"/>
<path d="M101.039 156.969H62.8174V185.761H101.039V156.969Z" fill="#9D7F74"/>
<path d="M100.801 170.56C99.5542 170.593 98.2886 170.909 97.0451 171.07C95.8312 171.226 94.6166 171.367 93.4009 171.493C90.9305 171.747 88.4572 171.935 85.9824 172.06C81.0708 172.308 76.1569 172.333 71.2453 172.084C68.4577 171.942 65.6706 171.723 62.8879 171.448C62.8569 171.445 62.8404 171.47 62.8183 171.485V156.969L53.4818 160.539L53.375 185.761H62.8183V171.894C62.8404 171.914 62.8572 171.942 62.8879 171.946C72.7494 173.228 82.6997 173.32 92.5777 172.376C93.9897 172.241 95.4008 172.085 96.8105 171.908C98.1513 171.739 99.5497 171.684 100.871 171.308C100.868 171.298 100.865 171.288 100.862 171.278C101.119 171.151 101.114 170.552 100.801 170.56Z" fill="#765F57"/>
<path d="M59.0983 147.969H20.877V185.761H59.0983V147.969Z" fill="#9D7F74"/>
<path d="M20.8769 147.969L11.5404 152.656L11.4336 185.761H20.8769V147.969Z" fill="#765F57"/>
<path d="M59.4769 164.787C58.9551 164.555 58.4793 164.717 57.9587 164.879C57.3034 165.082 56.6473 165.279 55.9912 165.471C54.7315 165.838 53.47 166.184 52.2071 166.509C49.665 167.162 47.1173 167.735 44.5648 168.219C43.0428 168.507 41.5186 168.754 39.9939 168.981C39.9827 168.331 39.9771 167.681 39.9626 167.032C39.8921 163.826 39.7852 160.623 39.6427 157.425C39.5698 155.788 39.4853 154.154 39.3809 152.523C39.3112 151.439 39.3806 149.717 38.9635 148.889C38.9384 148.839 38.8936 148.852 38.8759 148.91C38.7091 149.46 38.7605 149.876 38.7935 150.52C38.8354 151.335 38.875 152.152 38.9125 152.968C38.9836 154.528 39.0594 156.087 39.1253 157.648C39.2604 160.846 39.3596 164.049 39.4228 167.255C39.4346 167.856 39.4299 168.456 39.4393 169.057C36.0841 169.537 32.7235 169.881 29.3597 170.051C26.4705 170.198 23.578 170.255 20.6877 170.23C20.4332 170.228 20.4338 170.971 20.6877 170.983C26.938 171.285 33.204 170.979 39.4493 170.15C39.4783 172.318 39.5125 174.486 39.5093 176.655C39.5066 178.297 39.4948 179.938 39.4735 181.579C39.4591 182.699 39.223 184.401 39.6005 185.325C39.6403 185.422 39.7333 185.409 39.7743 185.325C40.1905 184.469 40.0101 182.685 40.0246 181.579C40.0461 179.938 40.0579 178.297 40.0603 176.655C40.0635 174.462 40.0432 172.27 40.0116 170.079C43.7921 169.558 47.5644 168.846 51.3205 167.955C52.6675 167.636 54.0128 167.289 55.356 166.92C56.091 166.718 56.8253 166.509 57.559 166.293C58.2352 166.093 58.922 166.023 59.5135 165.319C59.62 165.192 59.6091 164.845 59.4769 164.787Z" fill="#765F57"/>
</g>
<mask id="mask2_121_1492" style="mask-type:luminance" maskUnits="userSpaceOnUse" x="14" y="20" width="209" height="198">
<path d="M19.5483 144.287C26.5592 133.671 36.6462 136.156 43.9733 123.665C44.8726 122.132 52.3012 108.993 48.4678 96.8007C44.1654 83.1158 30.5054 79.5413 29.3661 64.6689C29.3661 64.6689 29.0385 60.3934 30.2087 55.9776C36.4907 32.2724 106.619 6.11376 162.517 28.5865C169.803 31.516 191.275 40.4548 206.338 61.5083C223.137 84.9881 222.591 110.433 222.069 134.727C221.643 154.586 221.43 164.516 215.327 175.55C199.374 204.396 165.091 211.036 142.759 214.617C97.9045 221.811 28.1637 216.002 16.6617 179.69C14.1123 171.641 12.2732 155.303 19.5483 144.287Z" fill="white"/>
</mask>
<g mask="url(#mask2_121_1492)">
<path d="M118.239 108.004C117.132 107.976 116.186 108.504 116.087 109.205C115.525 113.204 113.903 125.733 114.796 131.272C115.867 137.909 116.938 142.505 116.67 149.058C116.403 155.611 117.875 167.184 119.347 167.61C120.819 168.036 128.449 159.61 131.527 159.781C134.605 159.951 136.346 161.993 136.346 161.993C136.346 161.993 135.81 154.59 135.409 147.015C135.007 139.441 135.677 125.144 135.677 125.144L132.063 133.484C132.063 133.484 129.921 119.783 130.323 116.464C130.579 114.344 131.546 111.634 132.21 109.953C132.531 109.14 131.596 108.347 130.28 108.313L118.239 108.004Z" fill="#DFECF4"/>
</g>
<mask id="mask3_121_1492" style="mask-type:luminance" maskUnits="userSpaceOnUse" x="14" y="20" width="209" height="198">
<path d="M19.5483 144.287C26.5592 133.671 36.6462 136.156 43.9733 123.665C44.8726 122.132 52.3012 108.993 48.4678 96.8007C44.1654 83.1158 30.5054 79.5413 29.3661 64.6689C29.3661 64.6689 29.0385 60.3934 30.2087 55.9776C36.4907 32.2724 106.619 6.11376 162.517 28.5865C169.803 31.516 191.275 40.4548 206.338 61.5083C223.137 84.9881 222.591 110.433 222.069 134.727C221.643 154.586 221.43 164.516 215.327 175.55C199.374 204.396 165.091 211.036 142.759 214.617C97.9045 221.811 28.1637 216.002 16.6617 179.69C14.1123 171.641 12.2732 155.303 19.5483 144.287Z" fill="white"/>
</mask>
<g mask="url(#mask3_121_1492)">
<path d="M145.515 31.2156H147.637H193.733V126.791H147.637H145.515H96.4121V31.2156H145.515Z" fill="#D8AB98"/>
<path d="M143.667 33.8752H100.016V124.291H143.667V33.8752Z" fill="#D8AB98"/>
<path d="M190.878 33.8157H169.85V70.0892H190.878V33.8157Z" fill="#9D7F74"/>
<path d="M190.878 70.938H169.85V124.191H190.878V70.938Z" fill="#9D7F74"/>
<path d="M168.758 33.8157H147.939V70.0892H168.758V33.8157Z" fill="#9D7F74"/>
<path d="M168.758 70.938H147.939V124.191H168.758V70.938Z" fill="#9D7F74"/>
<path d="M190.878 70.938H169.85V124.191H190.878V70.938Z" fill="#BCD9E7"/>
<path d="M168.758 70.938H147.939V124.191H168.758V70.938Z" fill="#BCD9E7"/>
<path d="M190.878 33.8157H169.85V70.0892H190.878V33.8157Z" fill="#BCD9E7"/>
<path d="M168.758 33.8157H147.939V70.0892H168.758V33.8157Z" fill="#BCD9E7"/>
<path opacity="0.54" d="M169.85 33.8157V41.5106C177.364 46.5417 185.359 51.9143 190.878 55.6472V50.7687C186.874 45.2748 181.966 38.5728 178.481 33.8157H169.85Z" fill="#FFFFFD"/>
<path opacity="0.54" d="M158.361 33.8157C161.42 35.8596 165.01 38.2627 168.758 40.7738V33.8157H158.361Z" fill="#FFFFFD"/>
<path opacity="0.54" d="M169.85 70.938V72.4383L190.878 94.6515V88.2998C183.602 82.1008 175.916 75.6635 170.255 70.938H169.85Z" fill="#FFFFFD"/>
<path opacity="0.54" d="M168.428 70.938L168.758 71.2883V70.938H168.428Z" fill="#FFFFFD"/>
<path opacity="0.54" d="M161.62 63.7507L167.62 70.089H168.758V69.6892C164.578 66.1989 161.804 63.8989 161.62 63.7507Z" fill="#FFFFFD"/>
<path opacity="0.54" d="M169.85 120.692V124.192H173.64C172.389 123.033 171.121 121.865 169.85 120.692Z" fill="#FFFFFD"/>
<path opacity="0.54" d="M147.939 104.525C152.738 111.102 157.889 118.249 157.253 118.01C156.843 117.858 152.868 115.319 147.939 112.139V124.192H168.758V119.686C161.123 112.647 153.404 105.599 147.939 100.657V104.525Z" fill="#FFFFFD"/>
<path opacity="0.54" d="M147.939 66.4817V70.0888H150.764C149.851 68.9165 148.902 67.708 147.939 66.4817Z" fill="#FFFFFD"/>
<path opacity="0.54" d="M147.939 70.938V73.3099C154.408 78.121 159.956 82.24 160.24 82.4377C160.483 82.6038 156.6 77.5637 151.429 70.938H147.939Z" fill="#FFFFFD"/>
<path d="M143.25 33.8157H122.222V70.0892H143.25V33.8157Z" fill="#9D7F74"/>
<path d="M143.25 70.938H122.222V124.191H143.25V70.938Z" fill="#9D7F74"/>
<path d="M121.13 33.8157H100.312V70.0892H121.13V33.8157Z" fill="#9D7F74"/>
<path d="M121.13 70.938H100.312V124.191H121.13V70.938Z" fill="#9D7F74"/>
<path d="M143.25 70.938H122.222V124.191H143.25V70.938Z" fill="#BCD9E7"/>
<path d="M121.13 70.938H100.312V124.191H121.13V70.938Z" fill="#BCD9E7"/>
<path d="M143.25 33.8157H122.222V70.0892H143.25V33.8157Z" fill="#BCD9E7"/>
<path d="M121.13 33.8157H100.312V70.0892H121.13V33.8157Z" fill="#BCD9E7"/>
<path opacity="0.54" d="M122.222 33.8157V41.5106C129.736 46.5417 137.731 51.9143 143.25 55.6472V50.7687C139.246 45.2748 134.338 38.5728 130.853 33.8157H122.222Z" fill="#FFFFFD"/>
<path opacity="0.54" d="M110.733 33.8157C113.792 35.8596 117.382 38.2627 121.13 40.7738V33.8157H110.733Z" fill="#FFFFFD"/>
<path opacity="0.54" d="M122.222 70.938V72.4383L143.25 94.6515V88.2998C135.974 82.1008 128.288 75.6635 122.628 70.938H122.222Z" fill="#FFFFFD"/>
<path opacity="0.54" d="M120.8 70.938L121.13 71.2883V70.938H120.8Z" fill="#FFFFFD"/>
<path opacity="0.54" d="M113.992 63.7507L119.992 70.089H121.13V69.6892C116.95 66.1989 114.176 63.8989 113.992 63.7507Z" fill="#FFFFFD"/>
<path opacity="0.54" d="M122.222 120.692V124.192H126.012C124.761 123.033 123.493 121.865 122.222 120.692Z" fill="#FFFFFD"/>
<path opacity="0.54" d="M100.312 104.525C105.11 111.102 110.261 118.249 109.625 118.01C109.215 117.858 105.24 115.319 100.312 112.139V124.192H121.13V119.686C113.495 112.647 105.776 105.599 100.312 100.657V104.525Z" fill="#FFFFFD"/>
<path opacity="0.54" d="M100.312 66.4817V70.0888H103.135C102.223 68.9165 101.274 67.708 100.312 66.4817Z" fill="#FFFFFD"/>
<path opacity="0.54" d="M100.312 70.938V73.3099C106.78 78.121 112.328 82.24 112.612 82.4377C112.855 82.6038 108.972 77.5637 103.801 70.938H100.312Z" fill="#FFFFFD"/>
</g>
<mask id="mask4_121_1492" style="mask-type:luminance" maskUnits="userSpaceOnUse" x="14" y="20" width="209" height="198">
<path d="M19.5483 144.287C26.5592 133.671 36.6462 136.156 43.9733 123.665C44.8726 122.132 52.3012 108.993 48.4678 96.8007C44.1654 83.1158 30.5054 79.5413 29.3661 64.6689C29.3661 64.6689 29.0385 60.3934 30.2087 55.9776C36.4907 32.2724 106.619 6.11376 162.517 28.5865C169.803 31.516 191.275 40.4548 206.338 61.5083C223.137 84.9881 222.591 110.433 222.069 134.727C221.643 154.586 221.43 164.516 215.327 175.55C199.374 204.396 165.091 211.036 142.759 214.617C97.9045 221.811 28.1637 216.002 16.6617 179.69C14.1123 171.641 12.2732 155.303 19.5483 144.287Z" fill="white"/>
</mask>
<g mask="url(#mask4_121_1492)">
<path d="M75.2913 72.2115L94.8549 71.9185C100.284 71.9017 100.849 74.2523 100.833 77.1099C100.823 79.0513 101.008 80.2925 99.0289 81.4284C96.8911 82.2937 91.6339 83.18 87.7389 83.596C75.3554 84.9193 72.8431 83.2753 71.537 81.7856C71.1043 81.2922 69.1425 78.9204 69.7809 76.358C70.3142 74.2172 72.5069 72.5666 75.2913 72.2115Z" fill="#9C5A4A"/>
<path d="M104.288 54.5268C102.761 56.5425 95.3843 69.8297 93.6222 75.2809C93.0936 76.9164 93.2739 77.868 93.5236 78.4422C94.2414 80.0917 96.5876 81.7522 98.2472 81.4339C100.187 81.0619 101.468 79.3859 102.408 77.91C106.259 71.8625 108.499 60.8245 109.366 57.0462C108.28 56.6068 107.567 53.2029 104.288 54.5268Z" fill="#9C5A4A"/>
<path d="M91.8022 71.2925L91.7807 84.4446C91.7807 84.4446 70.9852 87.7478 68.6092 80.5098C66.2333 73.2718 71.9456 70.8528 91.8022 71.2925Z" fill="white"/>
<path d="M102.419 56.1792C102.308 56.4927 102.306 56.8468 102.42 57.1593C102.897 58.4665 104.418 61.7377 107.346 60.3921C110.064 59.1427 110.538 54.1982 110.604 51.804C110.624 51.0872 110.129 50.4975 109.522 50.5054L105.118 50.5632C104.692 50.5687 104.309 50.8726 104.144 51.3368L102.419 56.1792Z" fill="#9C5A4A"/>
<path d="M102.819 60.8613C101.874 59.0863 101.74 58.146 101.822 56.8936C101.942 55.0542 102.002 54.1349 101.754 53.1616C101.525 52.2643 101.136 51.5361 101.485 50.8472C101.516 50.786 101.727 50.4037 102.072 50.295C102.585 50.1331 102.961 50.7492 103.023 50.8551C103.429 51.552 103.044 52.179 103.217 53.0643C103.383 53.9207 103.846 53.8599 104.573 54.8397C105.03 55.4565 106.07 56.8571 105.663 58.5345C105.643 58.6153 105.215 60.2872 103.971 60.8431C103.046 61.2564 102.942 60.9476 102.819 60.8613Z" fill="#9C5A4A"/>
<path d="M96.7607 207.397C98.8435 208.297 98.5531 212.522 96.3944 212.5C96.3413 212.499 96.2893 212.496 96.2391 212.491C91.5985 211.965 91.5537 210.872 89.33 211.257C87.1837 211.63 86.421 212.788 84.0501 212.5C82.925 212.362 81.9814 211.962 81.356 211.644C81.3554 211.641 81.353 211.641 81.353 211.641C81.353 211.641 81.137 211.004 81.1125 210.615C80.9493 208.019 80.9027 206.323 81.0635 204.945C81.1512 204.186 81.3067 203.717 81.4897 202.214C81.5086 202.061 81.5821 201.43 81.6452 200.52C81.6594 200.331 81.6709 200.129 81.6833 199.918C81.706 199.549 81.7232 199.15 81.7329 198.726C81.7406 198.528 81.745 198.327 81.7462 198.12C81.748 198.091 81.7468 198.06 81.7485 198.032C81.7766 194.72 81.3495 191.718 81.0104 189.82C83.172 190.662 85.3308 191.502 87.4901 192.345C87.3375 194.914 87.524 196.938 87.7796 198.419C87.8168 198.636 87.8543 198.842 87.8965 199.033C87.9706 199.403 88.0464 199.732 88.1211 200.017C88.1423 200.102 88.1648 200.18 88.1869 200.256C88.2557 200.51 88.3177 200.706 88.3776 200.865C88.4517 201.059 88.4983 201.22 88.5936 201.342C91.018 204.454 94.1507 206.269 96.7607 207.397Z" fill="#E78D73"/>
<path d="M101.249 209.049C101.194 209.637 101.085 210.394 100.857 211.141C100.857 211.144 100.857 211.144 100.855 211.147C100.506 211.814 100.09 212.343 100.048 212.392C99.4016 213.195 98.7071 213.606 97.9704 213.885C97.1909 213.916 96.054 213.785 94.336 213.371C92.841 213.012 91.8653 212.644 91.1457 212.323C89.7446 211.697 89.3031 211.243 87.8471 211.337C87.1039 211.386 86.5107 211.55 85.9576 211.721C84.9237 212.036 84.0276 212.374 82.5655 212.009C81.4985 211.741 80.6479 211.229 80.0912 210.833C80.0912 210.83 80.0889 210.83 80.0889 210.83C80.0948 210.812 80.0986 210.794 80.1045 210.773C80.1376 210.648 80.1745 210.515 80.2066 210.372L80.2087 210.369L80.2084 210.363C80.2102 210.354 80.2143 210.345 80.2161 210.333C80.3817 209.505 80.5295 208.553 80.6269 207.496C80.7305 206.373 80.7556 205.329 80.74 204.389C80.7296 203.88 80.7072 203.403 80.6774 202.959C82.0858 203.195 82.9002 203.856 83.3863 204.437C83.6894 204.799 84.081 205.387 84.7578 205.629C84.9573 205.699 85.4257 205.869 85.8629 205.615C86.4363 205.281 86.5795 204.442 86.8885 203.485C86.9339 203.342 86.9856 203.19 87.0461 203.032L87.0479 203.023C87.3088 202.315 87.7052 201.448 88.325 200.53C88.5611 200.872 88.8433 201.258 89.1706 201.668C89.2957 201.824 89.4279 201.986 89.5667 202.147C89.7426 202.357 89.9297 202.566 90.1277 202.781C90.144 202.799 90.1623 202.82 90.1809 202.838C90.471 203.149 90.7538 203.43 91.0265 203.686C91.3978 204.032 91.7472 204.33 92.0595 204.58C92.269 204.744 92.4603 204.89 92.6309 205.015C92.6513 205.027 92.6696 205.041 92.6879 205.056C92.8785 205.19 93.042 205.303 93.1713 205.386C93.2554 205.442 93.323 205.484 93.3776 205.519C93.5904 205.653 93.7893 205.768 93.9791 205.872C94.2049 205.993 94.4165 206.099 94.6326 206.196C94.8439 206.29 95.0552 206.378 95.2816 206.466C95.9684 206.736 96.7839 207.016 98.0737 207.565C98.0805 207.571 98.0897 207.574 98.0985 207.577C98.6761 207.823 99.2068 208.062 99.6796 208.282C100.314 208.58 100.843 208.843 101.249 209.049Z" fill="#374866"/>
<path d="M101.249 209.049C101.194 209.637 101.085 210.394 100.856 211.141C100.856 211.144 100.856 211.144 100.854 211.147C100.506 211.814 100.09 212.343 100.048 212.392C99.4014 213.195 98.7069 213.606 97.9702 213.885C97.1907 213.916 96.0538 213.785 94.3358 213.372C92.8408 213.013 91.8651 212.644 91.1455 212.323C91.17 212.272 91.1972 212.223 91.2237 212.171C92.9034 209.095 96.2681 211.835 96.8628 210.013C97.2633 208.786 97.7787 207.968 98.0732 207.565C98.08 207.571 98.0892 207.574 98.098 207.577C98.6756 207.824 99.2063 208.062 99.6791 208.283C100.313 208.58 100.843 208.843 101.249 209.049Z" fill="#FBAE2C"/>
<path d="M100.856 211.141C100.856 211.144 100.856 211.144 100.854 211.148C100.506 211.815 100.09 212.343 100.048 212.392C99.4012 213.196 98.7067 213.606 97.97 213.885C97.5908 214.029 97.2012 214.14 96.8007 214.248C96.0696 214.445 95.4958 214.47 95.2337 214.49C92.225 214.724 90.7047 214.826 89.9379 214.032C89.4627 213.541 89.3845 213.179 88.9418 213.004C88.309 212.755 87.9194 213.574 86.8436 214.072C86.3654 214.292 85.9336 214.331 85.0868 214.396C83.4133 214.526 81.7534 214.366 80.4341 214.153C80.3043 213.813 79.7863 212.389 80.0903 210.833C80.0938 210.812 80.0977 210.794 80.1036 210.773C80.1204 210.691 80.1396 210.609 80.1608 210.527C80.1744 210.475 80.19 210.424 80.2057 210.372C80.2057 210.369 80.2054 210.366 80.2074 210.363C80.2092 210.354 80.2133 210.345 80.2151 210.333C80.3515 209.899 80.5309 209.558 80.6941 209.311C81.2357 209.364 81.9996 209.451 82.9157 209.585C85.5059 209.967 86.8002 210.156 88.2656 210.727C89.9665 211.392 90.0955 211.823 92.091 212.493C92.998 212.796 93.7654 212.974 94.5448 213.067C95.7151 213.207 96.7322 213.297 97.8487 212.722C99.163 212.046 100.367 210.552 100.166 209.669C100.043 209.124 99.3791 208.784 99.4576 208.468C99.4685 208.424 99.5066 208.362 99.6784 208.283C100.139 208.072 100.984 208.379 101.248 209.05C101.488 209.661 101.209 210.472 100.856 211.141Z" fill="#02102D"/>
<path d="M88.6204 203.992C88.6298 204.242 88.489 204.447 88.306 204.449C88.1231 204.452 87.9669 204.251 87.9575 204C87.948 203.749 88.0888 203.545 88.2721 203.542C88.4548 203.54 88.6109 203.742 88.6204 203.992Z" fill="white"/>
<path d="M95.2801 206.466C94.89 207.618 94.3398 207.625 94.3398 207.625C87.5163 202.569 87.0449 203.032 87.0449 203.032L87.0467 203.023C87.1087 202.586 87.2279 201.997 87.4705 201.36C87.7376 200.66 88.0555 200.16 88.2978 199.837C88.8533 200.825 89.6207 202.004 90.633 203.135C90.633 203.135 91.8848 204.532 93.1698 205.386C93.2731 205.455 93.3761 205.519 93.3761 205.519C93.5889 205.653 93.7879 205.768 93.9777 205.872C94.2034 205.993 94.4151 206.099 94.6311 206.196C94.8424 206.291 95.0535 206.379 95.2801 206.466Z" fill="#FBAE2C"/>
<path d="M88.5095 203.993C88.5157 204.16 88.4219 204.297 88.3 204.299C88.1778 204.3 88.0739 204.166 88.0677 203.999C88.0615 203.832 88.1553 203.696 88.2772 203.694C88.3994 203.692 88.5033 203.827 88.5095 203.993Z" fill="#02102D"/>
<path d="M90.9104 206.08C90.9199 206.331 90.7791 206.536 90.5961 206.538C90.4131 206.54 90.257 206.339 90.2475 206.088C90.2381 205.838 90.3789 205.633 90.5619 205.631C90.7451 205.629 90.9013 205.83 90.9104 206.08Z" fill="white"/>
<path d="M90.7996 206.082C90.8057 206.249 90.7119 206.385 90.59 206.387C90.4681 206.388 90.3639 206.254 90.3577 206.087C90.3515 205.92 90.4454 205.784 90.5673 205.782C90.6892 205.781 90.7934 205.915 90.7996 206.082Z" fill="#02102D"/>
<path d="M93.1663 207.262C93.1757 207.512 93.0349 207.717 92.8519 207.719C92.669 207.722 92.5128 207.521 92.5034 207.27C92.4939 207.019 92.6347 206.814 92.8177 206.812C93.0007 206.81 93.1568 207.011 93.1663 207.262Z" fill="white"/>
<path d="M93.0554 207.263C93.0616 207.43 92.9678 207.566 92.8459 207.568C92.7237 207.57 92.6198 207.436 92.6136 207.269C92.6074 207.102 92.7012 206.965 92.8231 206.963C92.945 206.962 93.0492 207.096 93.0554 207.263Z" fill="#02102D"/>
<path d="M88.2486 204.223C88.2123 204.227 88.1757 204.205 88.1518 204.165C88.1247 204.119 88.1185 204.058 88.1353 204.006C88.3333 203.4 89.1462 201.414 89.1807 201.33C89.2099 201.258 89.2769 201.236 89.3309 201.279C89.3844 201.322 89.4041 201.414 89.3749 201.486C89.3675 201.504 88.7297 203.061 88.4393 203.851C88.5051 203.827 88.5704 203.801 88.6347 203.772C88.7958 203.7 88.9782 203.596 89.1615 203.471C89.4918 203.246 89.8566 202.932 90.2164 202.564C90.2642 202.514 90.3339 202.53 90.3719 202.597C90.4097 202.665 90.4017 202.759 90.3539 202.808C89.9841 203.187 89.6084 203.511 89.2669 203.743C89.0745 203.874 88.8826 203.984 88.7117 204.06C88.5653 204.126 88.4145 204.18 88.2631 204.221C88.2578 204.222 88.2531 204.223 88.2486 204.223Z" fill="#02102D"/>
<path d="M90.6104 206.185L90.5566 206.116C90.0614 205.477 90.3196 203.168 90.3509 202.907C90.3607 202.825 90.4173 202.771 90.4778 202.789C90.5381 202.805 90.5791 202.886 90.5693 202.967C90.4941 203.6 90.3731 205.281 90.6576 205.825C90.7759 205.753 90.8902 205.668 90.9982 205.572C91.327 205.279 91.5979 204.885 91.8037 204.4C91.8338 204.328 91.9013 204.307 91.9545 204.351C92.0076 204.395 92.0265 204.488 91.9964 204.559C91.7741 205.083 91.4811 205.51 91.1245 205.827C90.9834 205.953 90.8326 206.061 90.6762 206.148L90.6104 206.185Z" fill="#02102D"/>
<path d="M92.8689 207.449C92.7694 207.458 92.6744 207.407 92.5912 207.3C92.0909 206.655 92.214 204.813 92.2193 204.735C92.2252 204.652 92.2795 204.594 92.34 204.605C92.4008 204.617 92.4457 204.693 92.4398 204.776C92.4055 205.266 92.3925 206.637 92.7393 207.084C92.7928 207.153 92.8335 207.151 92.863 207.144C93.1192 207.072 93.4568 206.164 93.6097 205.608C93.631 205.532 93.6947 205.494 93.7517 205.527C93.8089 205.559 93.8385 205.647 93.8172 205.725C93.7726 205.887 93.3689 207.313 92.9161 207.44C92.9005 207.444 92.8845 207.448 92.8689 207.449Z" fill="#02102D"/>
<path d="M65.7314 207.397C67.8142 208.297 67.5238 212.522 65.3651 212.5C65.312 212.499 65.26 212.496 65.2098 212.491C60.5692 211.965 60.5244 210.872 58.3007 211.257C56.1544 211.63 55.392 212.788 53.0208 212.5C51.8957 212.362 50.9521 211.962 50.3267 211.644C50.3261 211.641 50.3237 211.641 50.3237 211.641C50.3237 211.641 50.1077 211.004 50.0832 210.615C49.92 208.019 49.8734 206.323 50.0342 204.945C50.1219 204.186 50.2774 203.717 50.4604 202.214C50.4793 202.061 50.5528 201.43 50.6159 200.52C50.6301 200.331 50.6416 200.129 50.654 199.918C50.6767 199.549 50.6939 199.15 50.7036 198.726C50.7113 198.528 50.7157 198.327 50.7169 198.12C50.7187 198.091 50.7175 198.06 50.7192 198.032C50.7473 194.72 50.3202 191.718 49.9811 189.82C52.1427 190.662 54.3015 191.502 56.4608 192.345C56.3082 194.914 56.4947 196.938 56.7503 198.419C56.7878 198.636 56.825 198.842 56.8672 199.033C56.9413 199.403 57.0171 199.732 57.0918 200.017C57.113 200.102 57.1355 200.18 57.1576 200.256C57.2264 200.51 57.2884 200.706 57.3483 200.865C57.4224 201.059 57.469 201.22 57.5643 201.342C59.9887 204.454 63.1214 206.269 65.7314 207.397Z" fill="#E78D73"/>
<path d="M70.2203 209.049C70.1651 209.637 70.0565 210.394 69.828 211.141C69.828 211.144 69.828 211.144 69.826 211.147C69.4774 211.814 69.0615 212.343 69.0193 212.392C68.373 213.195 67.6785 213.606 66.9418 213.885C66.1623 213.916 65.0254 213.785 63.3073 213.371C61.8124 213.012 60.8367 212.644 60.1171 212.323C58.716 211.697 58.2745 211.243 56.8185 211.337C56.0753 211.386 55.4821 211.55 54.9293 211.721C53.8954 212.036 52.9993 212.374 51.5371 212.009C50.4702 211.741 49.6196 211.229 49.0629 210.833C49.0629 210.83 49.0605 210.83 49.0605 210.83C49.0664 210.812 49.0703 210.794 49.0759 210.773C49.109 210.648 49.1458 210.515 49.178 210.372L49.1801 210.369L49.1798 210.363C49.1816 210.354 49.1857 210.345 49.1875 210.333C49.353 209.505 49.5009 208.553 49.5983 207.496C49.7019 206.373 49.727 205.329 49.7113 204.389C49.701 203.88 49.6786 203.403 49.6488 202.959C51.0572 203.195 51.8715 203.856 52.3576 204.437C52.6611 204.799 53.0524 205.387 53.7292 205.629C53.9287 205.699 54.3971 205.869 54.8342 205.615C55.4077 205.281 55.5508 204.442 55.8599 203.485C55.9053 203.342 55.9573 203.19 56.0175 203.032L56.0193 203.023C56.2802 202.315 56.6765 201.448 57.2964 200.53C57.5325 200.872 57.8146 201.258 58.142 201.668C58.2671 201.824 58.3993 201.986 58.538 202.147C58.714 202.357 58.9011 202.566 59.0991 202.781C59.1154 202.799 59.1336 202.82 59.1522 202.838C59.4427 203.149 59.7251 203.43 59.9978 203.686C60.3691 204.032 60.7186 204.33 61.0309 204.58C61.2404 204.744 61.4317 204.89 61.6023 205.015C61.6226 205.027 61.6409 205.041 61.6592 205.056C61.8499 205.19 62.0134 205.303 62.1427 205.386C62.2265 205.442 62.2944 205.484 62.349 205.519C62.5618 205.653 62.7607 205.768 62.9505 205.872C63.1763 205.993 63.3879 206.099 63.604 206.196C63.8153 206.29 64.0266 206.378 64.2533 206.466C64.9401 206.736 65.7553 207.016 67.0454 207.565C67.0522 207.571 67.0613 207.574 67.0702 207.577C67.6478 207.823 68.1785 208.062 68.6513 208.282C69.285 208.58 69.8145 208.843 70.2203 209.049Z" fill="#374866"/>
<path d="M70.2194 209.049C70.1642 209.637 70.0556 210.394 69.8272 211.141C69.8272 211.144 69.8272 211.144 69.8251 211.147C69.4765 211.814 69.0607 212.343 69.0185 212.392C68.3721 213.195 67.6776 213.606 66.9409 213.885C66.1614 213.916 65.0245 213.785 63.3065 213.372C61.8115 213.013 60.8358 212.644 60.1162 212.323C60.1407 212.272 60.1679 212.223 60.1944 212.171C61.8741 209.095 65.2388 211.835 65.8335 210.013C66.234 208.786 66.7494 207.968 67.0439 207.565C67.0507 207.571 67.0599 207.574 67.0687 207.577C67.6463 207.824 68.177 208.062 68.6498 208.283C69.2841 208.58 69.8136 208.843 70.2194 209.049Z" fill="#FBAE2C"/>
<path d="M69.8277 211.141C69.8277 211.144 69.8277 211.144 69.8256 211.148C69.477 211.815 69.0612 212.343 69.019 212.392C68.3726 213.196 67.6781 213.606 66.9414 213.885C66.5622 214.029 66.1726 214.14 65.7721 214.248C65.041 214.445 64.4672 214.47 64.2051 214.49C61.1964 214.724 59.6761 214.826 58.9093 214.032C58.4341 213.541 58.3559 213.179 57.9131 213.004C57.2803 212.755 56.891 213.574 55.8152 214.072C55.3371 214.292 54.9053 214.331 54.0585 214.396C52.385 214.526 50.7251 214.366 49.4058 214.153C49.2759 213.813 48.7579 212.389 49.0619 210.833C49.0655 210.812 49.0693 210.794 49.0752 210.773C49.0921 210.691 49.1109 210.609 49.1325 210.527C49.1461 210.475 49.1617 210.424 49.1777 210.372C49.1777 210.369 49.1774 210.366 49.1794 210.363C49.1812 210.354 49.1853 210.345 49.1871 210.333C49.3235 209.899 49.5029 209.558 49.6661 209.311C50.2077 209.364 50.9716 209.451 51.8877 209.585C54.4779 209.967 55.7721 210.156 57.2376 210.727C58.9385 211.392 59.0675 211.823 61.063 212.493C61.97 212.796 62.7373 212.974 63.5168 213.067C64.6868 213.207 65.7042 213.297 66.8207 212.722C68.135 212.046 69.3392 210.552 69.1382 209.669C69.0146 209.124 68.3511 208.784 68.4299 208.468C68.4408 208.424 68.4789 208.362 68.6506 208.283C69.1114 208.072 69.9567 208.379 70.2205 209.05C70.4596 209.661 70.1804 210.472 69.8277 211.141Z" fill="#02102D"/>
<path d="M57.5921 203.992C57.6015 204.242 57.4607 204.447 57.2777 204.45C57.0947 204.452 56.9386 204.251 56.9292 204C56.9197 203.75 57.0605 203.545 57.2435 203.543C57.4265 203.541 57.5826 203.742 57.5921 203.992Z" fill="white"/>
<path d="M64.2518 206.466C63.8616 207.618 63.3115 207.625 63.3115 207.625C56.488 202.569 56.0166 203.032 56.0166 203.032L56.0184 203.023C56.0803 202.586 56.1999 201.997 56.4422 201.36C56.7093 200.66 57.0272 200.16 57.2695 199.837C57.825 200.825 58.5924 202.004 59.6047 203.135C59.6047 203.135 60.8564 204.532 62.1415 205.386C62.2448 205.455 62.3478 205.519 62.3478 205.519C62.5606 205.653 62.7595 205.768 62.9493 205.872C63.1751 205.993 63.3867 206.099 63.6028 206.196C63.8141 206.291 64.0254 206.379 64.2518 206.466Z" fill="#FBAE2C"/>
<path d="M57.4812 203.993C57.4874 204.16 57.3935 204.297 57.2716 204.299C57.1494 204.3 57.0456 204.166 57.0394 203.999C57.0332 203.832 57.127 203.696 57.2489 203.694C57.3708 203.692 57.475 203.827 57.4812 203.993Z" fill="#02102D"/>
<path d="M59.8814 206.08C59.8909 206.331 59.7501 206.536 59.5668 206.538C59.3838 206.54 59.2277 206.339 59.2182 206.088C59.2088 205.838 59.3496 205.633 59.5329 205.631C59.7161 205.629 59.872 205.83 59.8814 206.08Z" fill="white"/>
<path d="M59.7712 206.081C59.7774 206.249 59.6836 206.385 59.5617 206.386C59.4395 206.388 59.3356 206.254 59.3294 206.087C59.3232 205.92 59.417 205.783 59.5389 205.782C59.6608 205.781 59.765 205.915 59.7712 206.081Z" fill="#02102D"/>
<path d="M62.137 207.261C62.1464 207.512 62.0056 207.717 61.8227 207.719C61.6397 207.721 61.4835 207.52 61.4741 207.27C61.4646 207.019 61.6054 206.814 61.7884 206.812C61.9714 206.81 62.1275 207.011 62.137 207.261Z" fill="white"/>
<path d="M62.0261 207.263C62.0323 207.43 61.9384 207.566 61.8166 207.568C61.6944 207.57 61.5905 207.436 61.5843 207.269C61.5781 207.102 61.6719 206.965 61.7938 206.963C61.9157 206.962 62.0199 207.096 62.0261 207.263Z" fill="#02102D"/>
<path d="M57.2203 204.223C57.184 204.227 57.1474 204.205 57.1235 204.165C57.0964 204.119 57.0902 204.058 57.107 204.006C57.305 203.4 58.1179 201.414 58.1524 201.33C58.1816 201.258 58.2486 201.236 58.3026 201.279C58.356 201.322 58.3758 201.414 58.3466 201.486C58.3392 201.504 57.7014 203.061 57.411 203.851C57.4768 203.827 57.542 203.801 57.6064 203.772C57.7675 203.7 57.9499 203.596 58.1332 203.471C58.4635 203.246 58.8283 202.932 59.1881 202.564C59.2359 202.514 59.3055 202.53 59.3436 202.597C59.3814 202.665 59.3734 202.759 59.3256 202.808C58.9558 203.187 58.5801 203.511 58.2386 203.743C58.0461 203.874 57.8543 203.984 57.6834 204.06C57.537 204.126 57.3862 204.18 57.2348 204.221C57.2295 204.222 57.2247 204.223 57.2203 204.223Z" fill="#02102D"/>
<path d="M59.582 206.185L59.5283 206.116C59.0331 205.477 59.2913 203.168 59.3226 202.907C59.3323 202.825 59.389 202.771 59.4495 202.789C59.5097 202.805 59.5508 202.886 59.541 202.967C59.4658 203.6 59.3447 205.281 59.6293 205.825C59.7473 205.753 59.8618 205.668 59.9699 205.572C60.2987 205.279 60.5696 204.885 60.7753 204.4C60.8054 204.328 60.873 204.307 60.9262 204.351C60.9793 204.395 60.9982 204.488 60.9681 204.559C60.7458 205.083 60.4527 205.51 60.0962 205.827C59.9551 205.953 59.8043 206.061 59.6479 206.148L59.582 206.185Z" fill="#02102D"/>
<path d="M61.8406 207.449C61.7411 207.458 61.6461 207.407 61.5628 207.3C61.0626 206.655 61.1856 204.813 61.191 204.735C61.1969 204.652 61.2512 204.594 61.3117 204.605C61.3725 204.617 61.4173 204.693 61.4114 204.776C61.3772 205.266 61.3642 206.637 61.711 207.084C61.7644 207.153 61.8052 207.151 61.8347 207.144C62.0909 207.072 62.4285 206.164 62.5814 205.608C62.6027 205.532 62.6664 205.494 62.7234 205.527C62.7806 205.559 62.8101 205.647 62.7889 205.725C62.7443 205.887 62.3406 207.313 61.8878 207.44C61.8722 207.444 61.8565 207.448 61.8406 207.449Z" fill="#02102D"/>
<path d="M56.3126 109.745C56.3126 109.745 53.1419 113.114 53.087 126.663C53.0704 130.764 53.6091 131.727 53.1572 138.346C51.6097 161.016 48.6621 200.839 48.6621 200.839C48.6621 200.839 53.8476 203.345 62.7011 201.803C63.0571 201.845 72.1739 109.233 72.1739 109.233C72.1739 109.233 63.9664 105.764 56.3126 109.745Z" fill="#FBAE2C"/>
<path d="M63.5547 134.715L67.7493 153.386L70.0733 142.933L63.5547 134.715Z" fill="black"/>
<path d="M60.9595 126.541C60.9595 126.541 60.8367 131.43 62.8449 135.225C64.8531 139.021 77.3909 162.271 77.3909 162.271L79.4139 200.886C82.4365 201.514 85.1348 201.669 86.7805 201.61C90.9135 201.461 93.8168 200.788 93.8168 200.788C93.8168 200.788 92.2378 158.882 90.945 156.262C89.6523 153.641 75.3583 110.545 75.3583 110.545C75.3583 110.545 70.3346 107.747 65.3504 108.089L60.9595 126.541Z" fill="#FBAE2C"/>
<path d="M88.9692 85.492L83.1879 85.284C83.1064 85.2809 83.0423 85.2019 83.045 85.1066C83.0477 85.0117 83.1179 84.9368 83.1973 84.9402L88.7201 85.1393L89.6767 78.3678C89.6897 78.274 89.7649 78.208 89.8461 78.2262C89.9264 78.2413 89.981 78.33 89.9677 78.4235L88.9692 85.492Z" fill="black"/>
<path d="M143.17 63.7909C142.913 57.6923 140.356 52.8774 135.968 53.1686C131.581 53.4601 127.025 58.7474 127.283 64.846C127.541 70.9447 131.307 75.6526 135.694 75.3611C140.081 75.0699 143.428 69.8899 143.17 63.7909Z" fill="#AEACB1"/>
<path d="M142.505 63.5711C142.256 57.6973 138.499 53.1715 134.111 53.463C129.724 53.7546 126.369 58.7524 126.617 64.6265C126.866 70.5003 130.431 74.3591 134.818 74.0676C139.205 73.7761 142.753 69.4449 142.505 63.5711Z" fill="#5D5B60"/>
<path d="M51.8674 57.9239L136.942 53.197C136.383 53.6735 133.59 56.7894 135.453 62.3795C135.901 63.7259 136.441 64.6827 137.607 65.2926C105.792 67.4055 84.1979 68.0013 52.3833 70.1143C51.4557 69.8953 47.7285 68.9372 46.359 66.5179C44.7933 63.7523 46.9473 60.204 51.8674 57.9239Z" fill="#AEACB1"/>
<path d="M136.486 75.2194C122.489 73.0576 105.81 70.7332 87.9313 71.9289C70.1348 73.1177 64.2876 74.6992 48.2345 77.813C47.4842 77.3564 45.2213 77.0983 43.6296 70.8074C42.1624 65.0082 42.7731 60.851 45.8804 56.6477C46.4574 55.8659 47.1197 55.0803 47.8729 54.2841C60.8491 57.0262 68.0906 56.3789 85.2372 55.5685C104.221 54.6771 120.87 50.8169 134.645 46.1746C135.41 45.9198 136.164 45.6616 136.911 45.3997C132.033 51.6375 130.158 60.8438 132.084 67.7751C133.041 71.2248 134.605 74.1261 136.486 75.2194Z" fill="#AEACB1"/>
<path d="M135.897 63.3401C135.849 62.2025 136.463 61.2368 137.268 61.1835C138.073 61.1298 138.765 62.0089 138.813 63.1466C138.861 64.2842 138.247 65.2499 137.442 65.3032C136.637 65.3569 135.945 64.4778 135.897 63.3401Z" fill="#AEACB1"/>
<path opacity="0.34" d="M134.644 46.1746C134.085 47.0131 133.454 47.7987 132.816 48.5028C123.294 59.0464 110.205 64.4671 97.1194 65.8399C84.0337 67.2126 70.8662 64.8174 58.0571 61.41C57.6955 61.3144 57.3343 61.2189 56.9727 61.1164C55.4359 60.6918 53.9017 60.2318 52.3891 59.6941C50.8735 59.1526 49.3759 58.5372 47.9241 57.7977C47.2317 57.4439 46.5481 57.0616 45.8799 56.6477C46.4569 55.8659 47.1192 55.0803 47.8724 54.2841C60.8486 57.0262 68.0901 56.3788 85.2367 55.5685C104.221 54.677 120.869 50.8169 134.644 46.1746Z" fill="#5D5B60"/>
<path d="M111.833 51.2888C111.835 51.1826 111.822 50.9625 111.676 50.6913C111.489 50.343 111.197 50.1257 111.086 50.0487C110.998 49.9714 110.872 49.8789 110.712 49.8063C110.2 49.575 109.78 49.7513 109.714 49.7806C109.59 49.6032 109.458 49.5017 109.367 49.4447C108.939 49.1762 108.339 49.2095 107.884 49.5437C107.787 49.4416 107.691 49.3749 107.613 49.3302C107.023 48.9943 106.398 49.3515 106.373 49.367C105.777 49.0685 105.476 49.0909 105.322 49.1421C105.152 49.1985 104.92 49.5138 104.464 50.1419C104.462 50.1439 102.974 52.0892 103.724 54.0206C103.762 54.1189 103.834 54.253 103.974 54.3579C104.361 54.6477 104.988 54.5198 105.227 54.3115C105.53 54.0461 106.341 51.3376 106.341 51.3376C106.341 51.3376 106.514 50.9416 106.695 50.5276C105.832 52.1301 104.933 54.1447 105.577 54.6364C105.644 54.6879 105.797 54.779 105.974 54.8241C106.502 54.9588 106.886 54.5827 107.228 54.3472C107.412 54.4744 107.579 54.5525 107.711 54.6016C108.576 54.9227 109.236 54.4803 109.332 54.4132C109.65 54.4999 109.901 54.5129 110.088 54.5016C111.403 54.4229 111.668 53.0126 111.69 52.8837C111.738 52.3525 111.785 51.8207 111.833 51.2888Z" fill="#9C5A4A"/>
<path d="M105.314 54.2087C105.355 53.8993 105.399 53.5926 105.448 53.2884C105.475 53.1371 105.498 52.9848 105.529 52.8352C105.542 52.76 105.557 52.6847 105.572 52.6104C105.588 52.5358 105.602 52.4605 105.621 52.3873L105.67 52.1645L105.727 51.9452C105.743 51.8709 105.765 51.7994 105.786 51.7268L105.817 51.6182C105.826 51.5814 105.837 51.5453 105.848 51.5099C105.935 51.2215 106.042 50.9444 106.151 50.6638C106.108 50.7247 106.067 50.7859 106.026 50.8484C106.005 50.8797 105.984 50.9103 105.966 50.943L105.913 51.041C105.879 51.1073 105.842 51.1723 105.811 51.2404C105.781 51.3088 105.752 51.3782 105.722 51.447C105.611 51.7265 105.52 52.0174 105.455 52.3182C105.438 52.3928 105.425 52.4694 105.41 52.5454C105.397 52.6214 105.381 52.697 105.371 52.7751C105.35 52.9294 105.33 53.0848 105.318 53.2427C105.293 53.5579 105.286 53.879 105.314 54.2087Z" fill="#5B090B"/>
<path d="M107.209 54.3018C107.29 54.0312 107.365 53.7593 107.438 53.4873L107.55 53.0803C107.57 53.0129 107.587 52.9445 107.606 52.8768L107.665 52.6746C107.683 52.6065 107.704 52.5398 107.723 52.4724C107.743 52.4051 107.763 52.3384 107.784 52.2717L107.846 52.0712C107.868 52.0056 107.89 51.9392 107.911 51.8725C108 51.6088 108.095 51.3479 108.203 51.0911C108.03 51.3077 107.899 51.5538 107.785 51.8079C107.67 52.062 107.582 52.3298 107.501 52.6003C107.424 52.8726 107.36 53.1504 107.31 53.4337C107.26 53.7173 107.221 54.0048 107.209 54.3018Z" fill="#5B090B"/>
<path d="M109.332 54.4138C109.405 54.1769 109.463 53.9352 109.517 53.6918C109.545 53.5708 109.569 53.4477 109.595 53.3256L109.666 52.9571L109.732 52.5865C109.751 52.462 109.774 52.3389 109.792 52.2141C109.832 51.9652 109.868 51.7153 109.9 51.4619C109.8 51.685 109.728 51.9216 109.663 52.1612C109.629 52.2805 109.604 52.4029 109.574 52.5239C109.548 52.6463 109.524 52.769 109.5 52.8921C109.478 53.0162 109.457 53.1403 109.438 53.2651C109.421 53.391 109.401 53.5154 109.388 53.6426C109.358 53.8957 109.336 54.1511 109.332 54.4138Z" fill="#5B090B"/>
<path d="M79.5857 111.731C79.9411 107.348 80.735 103.048 81.6367 98.7787C82.0909 96.6282 83.0744 92.0763 83.966 87.7647C85.2641 81.4869 83.1222 73.8216 77.9403 71.5271C76.2759 70.7903 68.5342 70.7773 66.6081 71.2517C66.5216 71.2717 66.4386 71.2954 66.3554 71.3153C64.0518 71.9111 61.5976 75.9473 60.2807 81.4883C58.1763 90.3422 55.8086 112.892 55.8086 112.892L77.945 119.838C77.945 119.838 79.4414 113.51 79.5857 111.731Z" fill="white"/>
<path d="M82.8229 93.3482C79.4742 92.4066 76.1257 91.4646 72.7769 90.5229C69.0442 97.2761 64.5237 100.615 62.1153 99.3166C60.4554 98.4217 59.7299 95.2866 59.3766 93.7601C58.8043 91.2868 58.9274 89.1013 59.1438 87.6216L54.6318 113.745L78.1962 122.052C78.1962 122.052 82.42 95.1556 82.8229 93.3482Z" fill="#FBAE2C"/>
<path d="M81.6133 72.6844C81.5387 72.6844 81.4746 72.619 81.4666 72.5307C81.4581 72.4365 81.5168 72.3516 81.5977 72.3416C81.8607 72.3089 88.0564 71.5512 89.8043 71.9992C89.884 72.0195 89.9342 72.1113 89.9167 72.2041C89.8993 72.2966 89.8199 72.3547 89.7408 72.3351C88.0393 71.8995 81.6927 72.6754 81.629 72.6833C81.6237 72.684 81.6187 72.6844 81.6133 72.6844Z" fill="black"/>
<path d="M85.4015 60.4126C85.7778 59.3822 85.9989 57.6092 86.7917 56.7123C87.2084 56.2406 87.6438 55.9401 88 55.7472C88.1936 55.6626 88.4229 55.5196 88.6042 55.2645C89.3019 54.2819 88.8854 51.4387 87.9306 49.6575C87.1609 48.2221 86.2058 47.4142 85.0978 46.8793C83.6513 46.181 82.1894 46.3436 81.7458 46.5434C81.18 46.3419 79.5012 46.1717 77.6701 47.0154C74.7428 48.3638 73.992 51.9218 73.9262 52.2583C73.5749 54.0526 73.9338 55.4663 74.456 57.5216C75.1206 60.1386 75.5194 61.7572 76.7501 62.7487C79.49 64.9555 84.3939 63.1712 85.4015 60.4126Z" fill="#250705"/>
<path d="M74.0049 72.3871C74.1374 72.6914 75.2176 75.0433 77.6972 75.6769C80.092 76.2889 81.8794 74.8089 82.1306 74.5947L82.5866 70.4956L82.7613 69.0798L76.6031 62.1021C76.1541 63.9448 75.7058 65.7848 75.2548 67.6269C74.7729 69.6024 74.4869 70.4113 74.0049 72.3871Z" fill="#9C5A4A"/>
<path d="M75.2539 67.6264C75.8424 68.5117 76.8011 69.5644 78.2821 70.2118C80.0645 70.9922 81.6474 70.7722 82.586 70.4951L82.7607 69.0793L76.6024 62.1016C76.1535 63.9443 75.7049 65.7843 75.2539 67.6264Z" fill="#5B090B"/>
<path d="M77.0291 52.7812L76.2198 62.3354C76.0819 63.9794 76.5303 65.63 77.4809 66.846C79.5358 69.4805 82.1422 70.5147 84.0722 69.6569C84.2912 69.5593 84.6775 69.3605 85.1188 68.9428C85.9561 68.1493 86.4877 66.9921 86.6506 65.7465L87.6494 58.2283L87.7589 57.4087L87.9516 55.961C88.0859 54.9519 87.2568 54.1186 86.4115 53.8483C85.7442 53.6352 85.4812 53.5558 84.8644 53.4134C82.0117 52.754 79.3221 52.6509 77.0291 52.7812Z" fill="#9C5A4A"/>
<path d="M85.1711 53.4473C82.758 52.7896 81.4357 53.4624 80.642 54.1125C78.9966 55.4602 79.2404 57.698 77.5843 58.3678C76.502 58.8054 75.0094 58.4135 74.4906 57.3745C74.2931 56.9791 74.2137 56.461 74.3223 55.793C74.5599 54.3315 75.4607 50.9053 78.1779 49.8646C80.7099 48.8947 83.7287 50.2455 85.1711 53.4473Z" fill="#250705"/>
<path d="M76.6929 58.552C76.6929 58.552 75.7142 56.385 74.3483 56.8698C72.9823 57.3542 73.6792 59.5641 74.7143 60.4779C75.7493 61.3918 76.401 61.4605 76.401 61.4605L76.6929 58.552Z" fill="#9C5A4A"/>
<path d="M74.996 59.8028C74.9245 59.8028 74.8531 59.7729 74.7964 59.712C74.1828 59.0557 73.9712 58.1704 74.2929 57.6066C74.4163 57.391 74.6176 57.2349 74.8753 57.1552C75.0329 57.1064 75.1946 57.2157 75.2362 57.3993C75.2781 57.5829 75.1843 57.7709 75.027 57.8197C74.9121 57.8555 74.826 57.915 74.7846 57.9875C74.6689 58.19 74.7477 58.7263 75.1958 59.2059C75.3159 59.3345 75.3239 59.5518 75.2135 59.6917C75.1553 59.7653 75.0757 59.8028 74.996 59.8028Z" fill="#5B090B"/>
<path d="M83.4775 56.2937C83.4252 56.0978 83.2835 55.9479 83.1135 55.8987C82.4864 55.7162 81.9875 55.7464 81.6204 55.8262C81.6204 55.8262 80.9678 55.9132 79.7754 56.6097C79.7244 56.6396 79.7391 56.7307 79.7958 56.7331C80.2648 56.7527 81.3949 56.8105 82.0298 56.927C82.4241 56.9992 82.7998 57.0841 83.1557 57.1766C83.2487 57.2007 83.3414 57.1522 83.388 57.0549C83.4657 56.8926 83.5527 56.6265 83.4857 56.3298C83.4834 56.3178 83.4804 56.3058 83.4775 56.2937Z" fill="#250705"/>
<path d="M85.2598 57.396C85.2728 57.5091 85.3433 57.5923 85.4363 57.6112C85.7964 57.6762 86.1736 57.7597 86.5623 57.8636C86.8639 57.943 87.2653 58.0839 87.6499 58.2287L87.7594 57.4091C87.4622 57.1234 87.291 57.0171 87.291 57.0171C86.9752 56.783 86.5186 56.542 85.8796 56.4423C85.7061 56.4121 85.5269 56.4928 85.4162 56.6496C85.4094 56.6617 85.4032 56.6702 85.3967 56.6819C85.2415 56.9284 85.2377 57.2114 85.2598 57.396Z" fill="#250705"/>
<path d="M85.6943 59.5081C85.6633 59.9695 85.8227 60.3604 86.0502 60.381C86.2778 60.4017 86.4874 60.0445 86.5183 59.5827C86.5493 59.121 86.3899 58.7305 86.1624 58.7098C85.9348 58.6892 85.7253 59.0468 85.6943 59.5081Z" fill="black"/>
<path d="M81.1865 58.7441C81.1555 59.2055 81.3149 59.5964 81.5424 59.617C81.77 59.6377 81.9795 59.2804 82.0105 58.8191C82.0415 58.3577 81.8821 57.9668 81.6546 57.9462C81.427 57.9255 81.2175 58.2827 81.1865 58.7441Z" fill="black"/>
<path d="M83.8478 62.5232C83.7663 62.5232 83.7002 62.4462 83.7002 62.3513C83.7002 62.2564 83.7663 62.1794 83.8478 62.1794C83.89 62.1794 84.1075 62.1687 84.253 61.9593C84.3652 61.7978 84.369 61.6149 84.3655 61.5437L84.5783 58.3525C84.5845 58.258 84.6562 58.1889 84.7371 58.1944C84.8182 58.2016 84.879 58.2845 84.8728 58.3794L84.6603 61.5471C84.6659 61.6348 84.6597 61.9208 84.4826 62.1756C84.2586 62.4981 83.9399 62.5232 83.8478 62.5232Z" fill="#5B090B"/>
<path d="M84.9718 63.5735C84.9933 63.4917 84.9393 63.4116 84.8664 63.4185C84.5545 63.4473 84.1867 63.4522 83.7776 63.3992C83.1221 63.3146 82.5811 63.1114 82.1803 62.9155C82.1165 62.8842 82.043 62.9337 82.0389 63.0148C81.987 64.0662 82.6717 64.98 83.4645 64.9779C84.4996 64.9752 84.8655 63.9802 84.9718 63.5735Z" fill="white"/>
<path d="M75.7755 52.6444C75.7681 52.6444 75.7607 52.6437 75.753 52.6424C75.6725 52.6279 75.6173 52.5406 75.6297 52.4464C75.7164 51.7832 76.1288 49.5379 77.7842 48.4958C78.142 48.2706 78.5351 48.1163 78.9524 48.0379C79.0327 48.0217 79.1086 48.0867 79.1216 48.1802C79.1346 48.2741 79.0799 48.3621 78.9994 48.3772C78.6148 48.4494 78.2529 48.591 77.9244 48.7984C76.3891 49.7648 76.003 51.8747 75.9213 52.4987C75.9101 52.5836 75.8472 52.6444 75.7755 52.6444Z" fill="black"/>
<path d="M75.065 91.372L72.7773 90.5211C72.7773 90.5211 74.3655 81.6728 73.2286 77.6125C71.8278 72.5996 68.7084 71.4251 66.3555 71.3151C66.4387 71.2952 66.5219 71.2715 66.6081 71.2515C68.5343 70.7774 69.3294 70.731 71.3686 70.9493C72.7283 72.3197 74.4387 73.4291 75.7341 78.1461C76.8205 82.1011 75.065 91.372 75.065 91.372Z" fill="#FBAE2C"/>
<path d="M78.5054 116.009C78.5022 116.009 78.4993 116.009 78.496 116.009C74.5549 115.718 70.5843 115.136 66.6942 114.282C62.9438 113.458 59.1998 112.364 55.5662 111.031C55.4886 111.003 55.4452 110.906 55.4697 110.816C55.4942 110.725 55.5769 110.675 55.6548 110.703C59.2769 112.032 63.0096 113.122 66.7485 113.944C70.6268 114.796 74.5853 115.375 78.5143 115.666C78.5955 115.672 78.6575 115.753 78.6521 115.848C78.6477 115.939 78.5828 116.009 78.5054 116.009Z" fill="black"/>
<path d="M77.9898 119.151C77.9866 119.151 77.9836 119.151 77.9804 119.15C74.0399 118.859 70.0692 118.278 66.1786 117.424C62.4293 116.6 58.6854 115.506 55.0506 114.173C54.973 114.144 54.9296 114.048 54.9541 113.957C54.9786 113.867 55.0609 113.817 55.1395 113.845C58.763 115.174 62.4954 116.265 66.2332 117.086C70.112 117.938 74.0705 118.517 77.999 118.807C78.0801 118.813 78.1421 118.895 78.1368 118.99C78.1321 119.081 78.0671 119.151 77.9898 119.151Z" fill="black"/>
<path d="M72.5284 118.47L71.7383 118.294L72.2389 115.002L73.0809 115.105L72.5284 118.47Z" fill="black"/>
<path d="M76.6992 161.031L82.7627 160.675L77.4781 164.012L77.3899 162.272L76.6992 161.031Z" fill="black"/>
<path d="M70.3524 74.4306L85.8852 82.8644C90.1489 85.5065 89.8912 88.0306 88.7809 90.1213C88.0265 91.5415 87.9223 92.7414 85.9342 92.608C83.9254 92.1982 79.2349 90.0797 76.0205 88.481C65.8016 83.3976 64.4631 80.9621 64.0112 79.2297C63.8615 78.6559 63.2344 75.9554 64.7198 74.3863C65.9603 73.0754 68.0326 73.3301 70.3524 74.4306Z" fill="#9C5A4A"/>
<path d="M92.5306 63.4379C91.1337 65.5553 84.1605 81.3639 82.6874 86.9255C82.2456 88.5943 82.4631 89.5312 82.732 90.0864C83.5041 91.6823 85.8615 93.1761 87.4623 92.7429C89.3336 92.2365 90.5065 90.4752 91.3556 88.9374C94.8354 82.6352 97.0266 71.0028 97.7028 67.1725C96.6267 66.8095 95.6639 61.8884 92.5306 63.4379Z" fill="#9C5A4A"/>
<path d="M83.9345 79.8325L78.5102 90.4583C78.5102 90.4583 61.464 83.9505 62.6478 77.0488C63.8313 70.147 69.1354 70.7126 83.9345 79.8325Z" fill="white"/>
<path d="M91.6698 66.6021C92.034 64.0745 92.8486 62.1135 93.4578 60.8878C94.5023 58.7865 95.2931 58.1454 95.8193 57.816C96.4677 57.4107 97.1262 57.2821 98.4438 57.0256C100.123 56.6983 101.784 56.3748 102.064 57.0366C102.13 57.1903 102.18 57.5375 101.648 58.3028C101.648 58.3028 102.462 58.0312 102.931 58.1117C103.401 58.1925 103.822 58.8821 103.305 59.4109C102.788 59.9396 102.616 60.1157 102.616 60.1157C102.616 60.1157 103.06 60.1342 103.086 60.9346C103.106 61.5321 102.729 62.1671 102.149 62.5577L98.9237 64.7295L102.327 63.1033C102.885 62.8368 103.478 62.9909 103.653 63.4674C103.707 63.6173 103.724 63.7843 103.668 63.9617C103.595 64.1942 103.417 64.3819 103.22 64.5414C102.075 65.4648 98.3266 67.0253 97.7924 67.2464C97.267 68.4507 96.1752 69.4127 94.9855 69.7018C93.4599 70.0728 92.5287 69.1538 92.3758 69.0029C91.473 68.1117 91.6338 66.8466 91.6698 66.6021Z" fill="#9C5A4A"/>
<path d="M99.624 64.3951C100.023 64.1779 100.427 63.9757 100.832 63.7756C101.238 63.5755 101.648 63.3888 102.063 63.2145C102.271 63.1289 102.48 63.0468 102.694 62.9766C102.801 62.9398 102.91 62.9106 103.021 62.8834C103.137 62.859 103.259 62.8529 103.371 62.8776C103.483 62.901 103.579 62.9574 103.653 63.0285C103.727 63.1 103.781 63.1874 103.819 63.2826C103.892 63.4727 103.903 63.6976 103.827 63.9293L103.828 63.8609C103.832 63.8726 103.834 63.887 103.832 63.9021C103.832 63.9131 103.823 63.941 103.825 63.9351L103.823 63.9396L103.82 63.9478L103.814 63.9637L103.8 63.9939C103.791 64.0139 103.782 64.0335 103.772 64.0527C103.752 64.0912 103.73 64.129 103.707 64.1658C103.66 64.2397 103.606 64.3109 103.546 64.3776C103.516 64.4109 103.484 64.4429 103.45 64.4739C103.416 64.5034 103.381 64.5323 103.346 64.5612C103.277 64.6128 103.207 64.6633 103.137 64.7083C102.857 64.8926 102.571 65.0432 102.286 65.1948C101.714 65.4953 101.134 65.7652 100.553 66.0302C99.9719 66.2922 99.3887 66.5449 98.8029 66.788C98.5104 66.911 98.2161 67.0266 97.9224 67.1445C97.6288 67.2621 97.3345 67.3776 97.0391 67.4873L98.7719 66.6742C99.3489 66.4029 99.9259 66.133 100.5 65.8556C101.075 65.5802 101.648 65.2986 102.211 65.0016C102.492 64.852 102.773 64.6973 103.035 64.5275C103.102 64.4855 103.163 64.4409 103.225 64.3962L103.308 64.3274C103.334 64.3033 103.359 64.2779 103.384 64.2518C103.432 64.1992 103.475 64.1424 103.513 64.083C103.533 64.0534 103.55 64.0231 103.566 63.9925C103.574 63.9774 103.582 63.9619 103.589 63.9468L103.599 63.9245L103.603 63.9138L103.605 63.909L103.606 63.9066C103.608 63.8997 103.599 63.9265 103.599 63.9365C103.598 63.9503 103.601 63.9637 103.605 63.9743L103.606 63.9059C103.665 63.734 103.66 63.5487 103.606 63.394C103.55 63.2396 103.438 63.1121 103.28 63.0746C103.201 63.055 103.111 63.0567 103.017 63.0743C102.918 63.0956 102.816 63.1189 102.713 63.1509C102.508 63.2111 102.3 63.2847 102.094 63.3624C101.68 63.5157 101.269 63.689 100.857 63.8602C100.445 64.0328 100.035 64.2153 99.624 64.3951Z" fill="#5B090B"/>
<path d="M97.399 57.2373C97.9432 57.0857 98.4889 56.9575 99.0347 56.845C99.5807 56.7337 100.127 56.6381 100.673 56.5851C100.946 56.5611 101.219 56.5435 101.492 56.5686C101.56 56.5765 101.628 56.5865 101.696 56.6058C101.73 56.6133 101.764 56.6302 101.797 56.6429C101.827 56.6577 101.853 56.6738 101.881 56.6896C101.939 56.7182 101.988 56.7601 102.04 56.7969C102.086 56.8416 102.136 56.8825 102.173 56.9372C102.252 57.0403 102.308 57.171 102.314 57.3185C102.321 57.4659 102.277 57.6207 102.209 57.7616C102.142 57.9036 102.052 58.0346 101.95 58.1529C101.851 58.2739 101.738 58.3808 101.625 58.4853C101.607 58.5022 101.586 58.5132 101.565 58.519L101.564 58.5193L100.492 58.802L99.4204 59.0763C99.063 59.164 98.7056 59.2547 98.3479 59.3393C97.9901 59.4259 97.6324 59.5085 97.2744 59.5882C97.6301 59.472 97.986 59.3586 98.342 59.2492C98.6979 59.1378 99.0545 59.0326 99.4104 58.9247L100.48 58.6115L101.55 58.3062L101.489 58.3399C101.592 58.2433 101.694 58.1453 101.779 58.0391C101.868 57.9345 101.943 57.8235 101.994 57.7107C102.047 57.5983 102.076 57.4852 102.074 57.3797C102.069 57.2744 102.031 57.1785 101.97 57.096C101.942 57.0527 101.901 57.0187 101.864 56.9812C101.819 56.9499 101.78 56.9138 101.729 56.888C101.705 56.8746 101.68 56.8591 101.656 56.8471C101.632 56.8389 101.613 56.8268 101.585 56.8206C101.533 56.8055 101.474 56.7955 101.415 56.7869C101.173 56.7581 100.908 56.7673 100.643 56.7845C100.112 56.8193 99.5701 56.8939 99.0288 56.9726C98.4866 57.053 97.9432 57.1438 97.399 57.2373Z" fill="#5B090B"/>
<path d="M100.943 58.6541C101.32 58.4818 101.706 58.3402 102.097 58.2319C102.293 58.1796 102.491 58.1373 102.691 58.1167C102.79 58.1057 102.89 58.1037 102.989 58.1123C103.088 58.1212 103.187 58.1415 103.275 58.1899C103.297 58.2027 103.319 58.2144 103.337 58.2319C103.357 58.2481 103.376 58.2649 103.389 58.2821C103.417 58.3172 103.45 58.3488 103.472 58.389C103.496 58.4272 103.52 58.4664 103.536 58.5104C103.545 58.532 103.554 58.553 103.562 58.575L103.58 58.6441C103.605 58.7362 103.607 58.8373 103.601 58.9391C103.593 58.9903 103.585 59.0426 103.573 59.0941C103.556 59.1457 103.546 59.1983 103.522 59.2488C103.438 59.4538 103.295 59.6422 103.129 59.7979C102.963 59.9533 102.776 60.0839 102.582 60.185C101.827 60.5635 101.075 60.885 100.316 61.2078C99.5576 61.5272 98.7964 61.8353 98.0293 62.1189C98.7737 61.7486 99.5222 61.3959 100.271 61.0462L101.394 60.5223C101.767 60.3476 102.146 60.1754 102.506 59.9877C102.681 59.8983 102.844 59.7852 102.986 59.6549C103.127 59.5242 103.242 59.3716 103.312 59.2103C103.385 59.0491 103.405 58.8793 103.374 58.7273L103.361 58.6702L103.341 58.6166C103.33 58.5795 103.31 58.5472 103.292 58.5135C103.277 58.4784 103.25 58.4505 103.228 58.4189C103.217 58.4021 103.205 58.3907 103.193 58.3797C103.183 58.367 103.167 58.3584 103.153 58.3488C103.032 58.2731 102.848 58.2611 102.667 58.267C102.483 58.2738 102.292 58.3031 102.1 58.3412C101.715 58.4172 101.328 58.5286 100.943 58.6541Z" fill="#5B090B"/>
<path d="M102.743 59.9856C102.934 60.1245 103.071 60.3249 103.155 60.5556C103.231 60.7894 103.241 61.0631 103.164 61.3384C103.145 61.4069 103.118 61.4746 103.095 61.5434C103.067 61.6107 103.031 61.6764 102.999 61.7431C102.93 61.8758 102.841 62.0023 102.743 62.1216C102.644 62.2402 102.532 62.3492 102.413 62.4489C102.354 62.4988 102.293 62.5466 102.23 62.5916L102.051 62.7198L101.329 63.2207C101.086 63.3844 100.846 63.5511 100.601 63.7113C100.114 64.0355 99.6225 64.3532 99.1201 64.6537C99.5761 64.28 100.043 63.9242 100.514 63.5742C100.748 63.3975 100.987 63.2276 101.224 63.054L101.939 62.5438L102.119 62.419C102.175 62.3795 102.231 62.3372 102.284 62.2932C102.392 62.2059 102.49 62.1086 102.581 62.0071C102.671 61.9047 102.754 61.7967 102.818 61.6812C102.849 61.6228 102.883 61.5647 102.912 61.5059C102.935 61.4461 102.964 61.3866 102.985 61.3264C103.068 61.0847 103.085 60.8365 103.041 60.6062C102.993 60.3772 102.892 60.164 102.743 59.9856Z" fill="#5B090B"/>
<path d="M97.7926 67.2467C97.6524 67.3268 97.4995 67.3752 97.3484 67.4017C97.197 67.4272 97.0441 67.4272 96.9042 67.3959C96.8328 67.3825 96.7687 67.3546 96.7053 67.3268C96.6489 67.2893 96.5861 67.2594 96.5421 67.2088C96.4414 67.1215 96.3824 66.9991 96.3467 66.8733C96.4394 66.9634 96.5205 67.0541 96.6271 67.1164C96.6761 67.1521 96.7339 67.1751 96.7882 67.2023C96.8478 67.2216 96.9042 67.2449 96.968 67.2563C97.0919 67.2838 97.2245 67.2951 97.3629 67.2914C97.5013 67.2869 97.6439 67.2718 97.7926 67.2467Z" fill="#5B090B"/>
<path d="M79.4135 201.058C79.3362 201.058 79.2712 200.988 79.2662 200.896L77.2456 162.326L60.7011 131.399C60.658 131.318 60.679 131.212 60.7483 131.162C60.8174 131.112 60.9086 131.136 60.9517 131.217L77.5358 162.217L77.5381 162.261L79.5611 200.875C79.5661 200.97 79.5041 201.051 79.4226 201.057C79.4194 201.058 79.4164 201.058 79.4135 201.058Z" fill="black"/>
<path d="M61.1495 200.738C61.1442 200.738 61.1392 200.738 61.1339 200.737C61.0527 200.727 60.994 200.642 61.0028 200.548L66.0696 144.901C66.0779 144.806 66.1496 144.737 66.232 144.748C66.3128 144.758 66.3719 144.842 66.363 144.937L61.2962 200.584C61.2882 200.673 61.2242 200.738 61.1495 200.738Z" fill="black"/>
<path d="M81.552 96.8295L74.9336 94.8451L75.5466 92.1951L82.0833 94.1145L81.552 96.8295ZM75.296 94.5986L81.3318 96.4083L81.7314 94.3655L75.7562 92.6111L75.296 94.5986Z" fill="black"/>
<path d="M78.5026 90.7749L65.1725 84.6422C65.0966 84.6075 65.0594 84.5074 65.0895 84.4194C65.1194 84.3311 65.2052 84.2881 65.2808 84.3228L78.3759 90.3475L81.2885 84.571C81.3298 84.4892 81.4201 84.4617 81.4906 84.5098C81.5609 84.558 81.5842 84.6632 81.5432 84.745L78.5026 90.7749Z" fill="black"/>
<path d="M83.4876 80.4846C83.4602 80.4846 83.4327 80.4757 83.4079 80.4571C81.5027 79.0276 79.5049 77.7167 77.4698 76.5609C75.32 75.3397 73.0819 74.2643 70.8178 73.3652C70.7405 73.3346 70.6994 73.237 70.7257 73.1473C70.752 73.0572 70.8361 73.0094 70.9128 73.04C73.1884 73.9439 75.438 75.0248 77.5991 76.2521C79.6448 77.4138 81.6527 78.7316 83.5676 80.1683C83.6361 80.2196 83.6559 80.3261 83.6119 80.4059C83.5835 80.4568 83.5363 80.4846 83.4876 80.4846Z" fill="black"/>
<path d="M93.8879 83.0307C93.8743 83.0307 93.8605 83.0286 93.8466 83.0238C93.7684 82.9973 93.7232 82.9021 93.7462 82.8106L97.6508 67.1987C97.6735 67.1076 97.7552 67.0547 97.8338 67.0818C97.912 67.1083 97.9571 67.2039 97.9341 67.295L94.0296 82.9069C94.0107 82.9818 93.9517 83.0307 93.8879 83.0307Z" fill="black"/>
<path d="M85.5481 85.7662C85.5059 85.7662 85.464 85.7452 85.4351 85.7046C84.2362 84.0406 84.1479 82.0855 84.1447 82.0029C84.1411 81.9081 84.204 81.828 84.2855 81.8235C84.366 81.8231 84.436 81.8926 84.4395 81.9875C84.4404 82.0067 84.5284 83.9121 85.6609 85.4839C85.7134 85.5568 85.7051 85.6651 85.6429 85.7259C85.6151 85.7531 85.5815 85.7662 85.5481 85.7662Z" fill="black"/>
</g>
<mask id="mask5_121_1492" style="mask-type:luminance" maskUnits="userSpaceOnUse" x="14" y="20" width="209" height="198">
<path d="M19.5483 144.287C26.5592 133.671 36.6462 136.156 43.9733 123.665C44.8726 122.132 52.3012 108.993 48.4678 96.8007C44.1654 83.1158 30.5054 79.5413 29.3661 64.6689C29.3661 64.6689 29.0385 60.3934 30.2087 55.9776C36.4907 32.2724 106.619 6.11376 162.517 28.5865C169.803 31.516 191.275 40.4548 206.338 61.5083C223.137 84.9881 222.591 110.433 222.069 134.727C221.643 154.586 221.43 164.516 215.327 175.55C199.374 204.396 165.091 211.036 142.759 214.617C97.9045 221.811 28.1637 216.002 16.6617 179.69C14.1123 171.641 12.2732 155.303 19.5483 144.287Z" fill="white"/>
</mask>
<g mask="url(#mask5_121_1492)">
<path d="M200.449 168.526C199.409 168.588 198.51 167.767 198.403 166.659C197.799 160.341 196.503 140.723 196.769 131.765C197.29 114.235 199.2 87.2613 199.756 79.6376C199.827 78.6667 200.681 78.0393 201.458 78.3985C202.369 78.8197 203.552 79.2518 204.642 79.2962C207.047 79.3935 209.225 78.1111 212.544 78.502C216.515 78.9692 216.438 82.8253 216.438 82.8253C216.438 82.8253 216.076 94.5481 215.843 106.538C215.61 118.527 215.05 141.242 215.05 141.242L212.702 135.726C212.702 135.726 211.204 149.71 211.645 154.955C211.927 158.305 212.887 162.578 213.544 165.228C213.861 166.509 212.997 167.779 211.76 167.852L204.049 168.312L202.071 157.656L200.449 168.526Z" fill="#DFECF4"/>
</g>
<mask id="mask6_121_1492" style="mask-type:luminance" maskUnits="userSpaceOnUse" x="14" y="20" width="209" height="198">
<path d="M19.5483 144.287C26.5592 133.671 36.6462 136.156 43.9733 123.665C44.8726 122.132 52.3012 108.993 48.4678 96.8007C44.1654 83.1158 30.5054 79.5413 29.3661 64.6689C29.3661 64.6689 29.0385 60.3934 30.2087 55.9776C36.4907 32.2724 106.619 6.11376 162.517 28.5865C169.803 31.516 191.275 40.4548 206.338 61.5083C223.137 84.9881 222.591 110.433 222.069 134.727C221.643 154.586 221.43 164.516 215.327 175.55C199.374 204.396 165.091 211.036 142.759 214.617C97.9045 221.811 28.1637 216.002 16.6617 179.69C14.1123 171.641 12.2732 155.303 19.5483 144.287Z" fill="white"/>
</mask>
<g mask="url(#mask6_121_1492)">
<path d="M175.886 54.6627C177.559 55.2657 178.939 56.6416 179.532 58.2959C180.046 59.7316 179.979 61.2945 179.761 62.7873C179.543 64.2801 179.18 65.7546 179.122 67.2646C179.062 68.8334 179.337 70.4207 179.924 71.8935C180.505 73.3536 180.908 73.7342 181.157 73.9003C182.398 74.7292 184.052 74.1103 184.383 73.9793C184.104 74.2451 182.808 75.424 180.844 75.3676C179.7 75.3349 178.84 74.8973 178.418 74.6432C179.213 75.4852 180.366 75.9875 181.521 75.9954C181.358 76.0782 178.852 77.3028 176.66 75.9644C174.778 74.8158 174.501 72.6169 174.446 72.182C174.269 70.772 174.815 70.5441 175.275 67.6452C175.568 65.7949 175.709 64.8456 175.41 63.6612C175.249 63.0238 174.792 61.2117 173.318 60.3618C172.708 60.0098 172.497 60.083 171.815 59.6591C171.052 59.1857 170.507 58.3802 170.359 57.5097C170.265 56.9503 170.336 56.37 170.549 55.8508C170.673 55.5524 170.807 55.1842 171.083 54.9917C171.461 54.7287 171.969 54.5874 172.416 54.4801C172.952 54.3512 173.507 54.2955 174.061 54.3144C174.682 54.336 175.3 54.4512 175.886 54.6627Z" fill="#250705"/>
<path d="M167.389 211.064C167.222 211.097 167.059 211.129 166.9 211.156C166.723 211.189 166.55 211.219 166.383 211.245C166.158 211.283 165.941 211.314 165.737 211.342C165.638 211.358 165.541 211.37 165.448 211.382C165.26 211.407 165.082 211.431 164.917 211.449C163.955 211.558 163.41 211.62 162.633 211.619C162.531 211.62 162.434 211.618 162.338 211.619L162.414 210.958L161.586 210.989L161.632 211.569C161.635 211.575 161.635 211.581 161.637 211.586C160.884 211.544 160.195 211.497 158.847 211.676C155.113 212.169 153.854 212.79 151.804 212.232C151.224 212.075 150.751 211.865 150.419 211.699C150.416 211.661 150.411 211.62 150.407 211.582C150.402 211.533 150.399 211.483 150.395 211.434C150.313 210.192 150.772 209.008 151.563 208.449L151.575 208.44C152.403 208.087 153.096 207.752 153.622 207.486C153.622 207.486 155.97 206.297 157.285 205.011C157.42 204.88 157.541 204.741 157.541 204.741C157.782 204.463 158.031 204.111 158.27 203.652C158.727 202.776 159.154 201.515 159.421 199.668C161.428 199.789 163.432 199.907 165.438 200.028C166.006 203.234 166.571 206.437 167.137 209.644C167.221 210.118 167.306 210.591 167.389 211.064Z" fill="#374866"/>
<path d="M167.389 211.064C166.447 211.252 165.627 211.364 164.971 211.444C164.035 204.958 160.549 203.728 158.271 203.653C158.728 202.776 159.154 201.515 159.422 199.669C161.429 199.79 163.433 199.908 165.439 200.029C166.09 203.708 166.738 207.385 167.389 211.064Z" fill="#02102D"/>
<path d="M167.389 211.064C167.222 211.097 167.059 211.129 166.9 211.156C166.723 211.189 166.55 211.219 166.383 211.245C166.158 211.283 165.941 211.314 165.737 211.342C165.638 211.358 165.541 211.37 165.448 211.382C165.26 211.407 165.082 211.431 164.917 211.449C163.955 211.558 163.41 211.62 162.633 211.619C162.531 211.62 162.434 211.618 162.339 211.619L162.414 210.958L161.586 210.989L161.633 211.569C161.635 211.575 161.635 211.581 161.637 211.586C160.884 211.544 160.195 211.497 158.847 211.676C155.113 212.169 153.854 212.79 151.804 212.232C151.224 212.075 150.751 211.865 150.419 211.699C150.416 211.661 150.411 211.62 150.407 211.582C150.402 211.533 150.399 211.483 150.395 211.434C150.372 211.04 150.402 210.65 150.479 210.288C150.804 210.445 151.242 210.627 151.766 210.771C153.815 211.329 155.074 210.709 158.809 210.215C160.703 209.963 161.297 210.16 162.594 210.158C163.37 210.158 163.915 210.097 164.878 209.988C165.493 209.918 166.261 209.811 167.137 209.643L167.145 209.643L167.389 211.064Z" fill="black"/>
<path d="M195.932 204.199C195.783 204.3 195.639 204.4 195.496 204.492C195.339 204.599 195.184 204.7 195.033 204.796C194.832 204.927 194.637 205.049 194.452 205.162C194.363 205.219 194.275 205.271 194.191 205.322C194.021 205.425 193.86 205.523 193.71 205.61C192.834 206.121 192.338 206.41 191.608 206.739C191.513 206.783 191.421 206.822 191.331 206.863L191.232 206.205L190.462 206.585L190.656 207.115C190.659 207.119 190.661 207.125 190.665 207.129C189.946 207.408 189.287 207.655 188.067 208.396C184.687 210.446 183.664 211.567 181.595 211.906C181.01 212.003 180.51 212.004 180.156 211.988C180.143 211.953 180.128 211.917 180.115 211.882C180.097 211.838 180.081 211.792 180.065 211.747C179.667 210.604 179.792 209.287 180.391 208.423L180.4 208.409C181.086 207.724 181.651 207.112 182.075 206.638C182.075 206.638 183.974 204.515 184.876 202.74C184.97 202.559 185.047 202.376 185.047 202.376C185.202 202.01 185.345 201.571 185.451 201.035C185.654 200.011 185.728 198.634 185.503 196.771C187.419 196.036 189.332 195.299 191.248 194.563C192.61 197.362 193.969 200.159 195.33 202.959C195.529 203.373 195.731 203.785 195.932 204.199Z" fill="#374866"/>
<path d="M195.932 204.199C195.096 204.775 194.355 205.229 193.759 205.583C191.202 199.83 187.61 200.142 185.45 201.035C185.653 200.011 185.728 198.634 185.502 196.771C187.418 196.036 189.331 195.299 191.247 194.563C192.809 197.776 194.369 200.986 195.932 204.199Z" fill="#02102D"/>
<path d="M195.932 204.199C195.784 204.3 195.639 204.4 195.497 204.492C195.339 204.599 195.184 204.7 195.034 204.796C194.832 204.927 194.637 205.049 194.452 205.162C194.363 205.219 194.275 205.271 194.191 205.322C194.021 205.425 193.861 205.523 193.71 205.61C192.834 206.121 192.338 206.41 191.608 206.739C191.513 206.783 191.421 206.822 191.332 206.863L191.232 206.205L190.462 206.585L190.656 207.115C190.66 207.119 190.661 207.125 190.665 207.129C189.946 207.408 189.287 207.655 188.067 208.396C184.687 210.446 183.664 211.567 181.595 211.906C181.01 212.003 180.511 212.004 180.156 211.988C180.143 211.953 180.128 211.917 180.115 211.882C180.097 211.838 180.081 211.792 180.065 211.746C179.942 211.383 179.869 211.001 179.848 210.625C180.194 210.636 180.652 210.624 181.181 210.538C183.25 210.199 184.273 209.078 187.653 207.029C189.368 205.987 189.977 205.922 191.194 205.371C191.924 205.042 192.42 204.754 193.296 204.242C193.857 203.915 194.55 203.488 195.329 202.959L195.337 202.955L195.932 204.199Z" fill="black"/>
<path d="M157.71 126.279C157.367 135.993 156.476 146.65 156.363 157.764C156.289 164.969 157.966 195.934 158.116 203.294C159.126 203.503 160.492 203.62 161.985 203.544C163.465 203.469 165.207 203.442 166.196 203.135C166.403 198.338 167.434 190.559 167.913 181.87C168.154 177.576 168.291 172.891 168.267 167.845C168.247 163.681 168.142 164.203 168.2 162.052C168.248 160.327 168.351 158.71 168.499 157.179C169.306 148.891 171.459 143.122 173.316 136.377C174.278 132.88 175.161 129.121 175.735 124.612L157.71 126.279Z" fill="#6E92CC"/>
<path d="M167.794 125.346C165.567 132.929 162.901 145.379 164.001 160.625C164.628 169.31 166.308 176.548 167.97 181.983C168.185 177.691 168.302 173.009 168.264 167.964C168.231 163.801 168.134 164.322 168.183 162.172C168.434 151.113 170.897 144.506 172.959 136.528C171.567 132.77 170.175 129.012 168.783 125.254L167.794 125.346Z" fill="black"/>
<path d="M163.57 125.128C164.101 131.09 164.772 136.328 165.436 140.731C166.093 145.087 166.887 150.264 168.294 156.489C168.763 158.564 169.299 160.752 169.919 163.064C172.217 171.619 174.538 177.744 175.078 179.148C177.284 184.879 180.885 191.587 185.175 199.967L193.035 197.089L181.827 161.951C181.827 161.951 181.296 137.633 179.642 122.679L163.57 125.128Z" fill="#6E92CC"/>
<path d="M157.711 126.279L157.851 122.062L179.449 119.945L179.827 124.232C174.973 124.766 170.055 125.25 165.074 125.683C162.605 125.897 160.151 126.096 157.711 126.279Z" fill="#6E92CC"/>
<path d="M134.858 111.057C134.596 110.632 134.233 110.188 133.88 110.261C133.183 110.406 132.971 112.477 132.922 112.959C132.68 115.323 133.166 118.516 134.338 118.791C134.715 118.879 135.18 118.59 135.749 117.865C135.749 117.865 136.438 116.729 134.858 111.057Z" fill="black"/>
<path d="M128.349 111.415L137.538 111.497C137.538 111.497 136.834 116.14 135.749 117.865C133.618 117.726 131.487 117.587 129.357 117.449C129.178 117.363 127.915 116.727 127.518 115.085C127.035 113.09 128.284 111.494 128.349 111.415Z" fill="#E78D73"/>
<path d="M144.663 109.283C139.912 109.673 137.285 110.085 133.967 110.266C134.508 110.737 135.062 111.344 135.157 113.282C135.311 116.411 135.117 117.433 134.109 118.811C135.97 120.022 149.278 119.851 152.89 116.738C154.212 114.775 154.05 113.458 153.97 113.042C153.484 110.511 149.763 108.517 144.663 109.283Z" fill="white"/>
<path d="M151.247 94.1057C150.798 96.1699 144.952 109.558 146.01 112.376C146.679 114.158 148.121 116.675 150.661 117.862C150.865 117.851 151.06 117.828 151.234 117.78C154.266 116.941 155.705 112.273 157.255 107.243C158.755 102.374 159.071 98.0666 159.093 95.1663C158.941 89.2389 159.961 84.131 159.809 78.2036C159.417 78.3927 154.302 80.0811 151.247 94.1057Z" fill="white"/>
<path d="M126.917 113.447C124.303 115.049 123.04 115.509 122.372 115.611C122.261 115.628 121.766 115.762 120.775 116.031C120.27 116.167 119.991 116.247 119.773 116.505C119.472 116.861 119.477 117.332 119.494 117.545C119.111 117.649 118.98 117.849 118.944 117.911C118.696 118.338 119.049 118.99 119.524 119.228C119.719 119.325 119.912 119.342 120.048 119.34C119.943 119.524 119.931 119.659 119.935 119.739C119.959 120.247 120.702 120.497 121.195 120.535C121.449 120.554 121.664 120.52 121.798 120.49C121.866 120.56 121.971 120.664 122.125 120.748C122.357 120.875 122.727 120.999 123.276 120.985C123.666 120.976 124.063 120.951 124.505 120.884C125.398 120.749 126.331 120.508 127.59 119.928C128.403 119.554 129.591 118.994 130.777 117.835C131.342 117.284 131.624 117.008 131.79 116.594C132.171 115.647 132.199 114.884 131.604 113.288C131.344 112.59 130.834 112.065 130.668 111.872C129.884 110.96 128.861 111.573 127.5 110.81C126.915 110.483 126.246 108.941 125.155 109.235C124.566 109.393 124.2 110.968 124.699 111.716C125.294 112.608 126.978 112.205 127.086 112.911C127.117 113.118 126.998 113.327 126.917 113.447Z" fill="#E78D73"/>
<path d="M119.515 117.435C119.96 117.315 120.407 117.216 120.853 117.119C121.304 117.011 121.757 116.955 122.201 116.852C122.649 116.767 123.09 116.649 123.525 116.508C123.96 116.366 124.385 116.189 124.797 115.966C124.418 116.253 123.995 116.466 123.562 116.637C123.129 116.808 122.68 116.927 122.23 117.026C121.778 117.115 121.323 117.174 120.877 117.251C120.423 117.321 119.969 117.388 119.515 117.435Z" fill="#844B42"/>
<path d="M119.982 119.538C120.041 119.246 120.215 118.982 120.448 118.816C120.691 118.654 120.966 118.616 121.222 118.539C121.744 118.405 122.267 118.289 122.785 118.146C123.305 118.018 123.821 117.867 124.332 117.702C124.843 117.535 125.348 117.346 125.84 117.11C125.377 117.412 124.876 117.637 124.369 117.831C123.861 118.025 123.341 118.176 122.821 118.318C122.298 118.447 121.773 118.566 121.247 118.672C120.987 118.732 120.714 118.757 120.487 118.891C120.257 119.022 120.075 119.259 119.982 119.538Z" fill="#844B42"/>
<path d="M125.237 116.11C125.337 116.334 125.456 116.546 125.593 116.741C125.73 116.937 125.888 117.112 126.055 117.273C126.391 117.596 126.785 117.835 127.198 118.006C127.233 118.021 127.25 118.064 127.237 118.102C127.231 118.121 127.217 118.136 127.202 118.144C126.711 118.4 126.208 118.628 125.694 118.824C125.181 119.02 124.653 119.169 124.121 119.287C123.59 119.412 123.051 119.479 122.527 119.597C122.397 119.63 122.266 119.664 122.145 119.718C122.024 119.771 121.903 119.84 121.839 119.96C121.767 120.077 121.79 120.236 121.849 120.366C121.909 120.498 121.994 120.616 122.087 120.725C121.987 120.624 121.89 120.516 121.821 120.382C121.753 120.254 121.714 120.075 121.789 119.929C121.858 119.782 121.989 119.698 122.114 119.635C122.241 119.571 122.373 119.531 122.505 119.492C123.034 119.349 123.567 119.257 124.092 119.132C125.143 118.881 126.166 118.5 127.145 118.008L127.149 118.146C126.728 117.955 126.332 117.689 125.999 117.344C125.666 117 125.401 116.576 125.237 116.11Z" fill="#844B42"/>
<path d="M127.488 114.23C127.934 114.487 128.392 114.693 128.868 114.819C129.104 114.888 129.347 114.923 129.591 114.942C129.836 114.966 130.081 114.943 130.333 114.92C130.096 115.01 129.845 115.081 129.59 115.08C129.335 115.089 129.079 115.059 128.831 114.991C128.337 114.855 127.866 114.604 127.488 114.23Z" fill="#844B42"/>
<path d="M157.64 81.282C158.829 79.8047 162.087 76.157 167.089 75.2154C173.332 74.0403 177.97 77.8942 179.168 78.9607C178.93 86.2358 178.776 93.7379 178.723 101.454C178.667 109.632 178.728 117.573 178.885 125.261C177.569 125.828 175.524 126.501 173.039 126.404C166.723 126.155 164.074 123.719 160.746 126.054C159.446 126.965 158.352 126.127 157.312 125.031C157.406 109.756 157.546 96.557 157.64 81.282Z" fill="#FBAE2C"/>
<path d="M171.534 55.4541C171.534 55.4541 175.286 57.8095 175.443 61.6755C175.601 65.5415 173.579 71.3338 170.963 71.5136C168.347 71.6934 167.331 56.8654 171.534 55.4541Z" fill="#250705"/>
<path d="M170.513 65.5161C170.57 69.4151 170.627 73.3173 170.683 77.2163C170.552 77.5584 170.27 78.2511 169.817 78.9532C169.625 79.2547 168.92 80.2898 167.932 80.7639C166.196 81.6011 164.638 80.185 164.254 79.812C164.296 78.7273 164.336 77.6402 164.378 76.5555C164.461 74.3837 164.545 72.2092 164.627 70.0374C164.64 69.7242 164.651 69.4134 164.664 69.1002C166.035 68.5288 167.519 67.7333 169.071 66.6256C169.572 66.2663 170.052 65.895 170.513 65.5161Z" fill="#E78D73"/>
<path d="M169.267 73.5959C168.91 74.1852 168.097 75.5233 166.524 75.9458C165.58 76.1992 164.841 76.0201 164.405 75.8829C164.495 74.0814 164.508 72.273 164.597 70.4715C166.042 69.5199 167.487 68.5686 168.932 67.6169C169.284 67.7562 169.644 67.9288 170.011 68.1295C170.153 68.758 170.657 71.3073 169.267 73.5959Z" fill="#844B42"/>
<path d="M171.808 65.5034C171.535 66.2271 171.144 67.3225 170.747 68.6798C169.974 71.3233 170.036 72.0394 169.257 72.936C168.285 74.0544 166.944 74.3769 165.987 74.6065C164.765 74.8984 164.128 74.7348 163.006 74.1902C160.743 73.088 160.245 71.3755 160.655 67.4775C160.771 66.3977 160.814 65.7575 160.898 64.4411C160.953 63.573 160.921 62.9982 160.926 62.3463C160.926 62.3078 160.926 62.2728 160.927 62.2342C160.926 62.1081 160.932 61.9754 160.939 61.8396C160.941 61.7801 160.944 61.7141 160.947 61.6477C160.962 61.2778 160.985 60.825 161.081 60.3667C161.189 59.8366 161.339 59.2133 161.595 58.4803C161.808 57.8611 163.597 53.6348 169.015 55.9627C170.411 56.5657 171.264 57.0174 171.754 57.3581C171.858 57.6408 171.932 57.955 171.966 58.3098C171.971 58.3524 171.974 58.3913 171.976 58.4336C171.976 58.4336 171.998 58.6887 172.005 58.942C172.014 59.1786 171.943 61.8489 171.808 65.5034Z" fill="#E78D73"/>
<path d="M172.829 66.5808C172.674 66.7118 172.528 66.8297 172.392 66.9294C171.441 67.6287 171.201 67.8708 171.201 67.8708C171.059 67.9344 170.551 67.9639 170.347 67.8426C169.387 67.2726 171.37 63.2209 170.015 61.0233C169.883 60.8085 169.744 60.6513 169.594 60.5334C169.4 60.3811 168.914 59.9796 167.059 59.8028C166.427 59.7427 166.179 59.7585 165.825 59.5402C165.437 59.3002 165.442 59.1001 165.081 58.757C164.121 57.8463 162.775 58.0168 162.422 58.0773C162.09 58.1344 161.827 58.2331 161.66 58.3056C161.945 57.5743 162.877 55.4562 164.807 54.6452C165.38 54.4042 165.84 54.3241 166.269 54.2646C167.269 54.1253 169.637 53.796 171.554 55.4167C173.955 57.4468 173.885 61.0467 173.873 61.406C173.874 61.4067 174.048 65.5343 172.829 66.5808Z" fill="#250705"/>
<path d="M167.521 59.1656C168.509 58.6468 169.646 58.4364 170.756 58.6358C171.314 58.7245 171.849 58.9803 172.327 59.3179C172.803 59.6562 173.245 60.0904 173.549 60.6464C173.849 61.1999 174.02 61.8242 174.101 62.4486C174.183 63.0743 174.189 63.7062 174.131 64.326C174.018 65.5658 173.733 66.7732 173.298 67.9019C173.456 67.3133 173.593 66.7192 173.689 66.1165C173.794 65.517 173.869 64.9108 173.896 64.3033C173.949 63.1018 173.853 61.8376 173.289 60.8262C173.024 60.3197 172.621 59.9096 172.178 59.5816C171.736 59.2526 171.237 59.0192 170.714 58.8957C170.192 58.7689 169.649 58.7445 169.112 58.7981C168.572 58.8414 168.038 58.971 167.521 59.1656Z" fill="#5B090B"/>
<path d="M166.953 58.7243C167.362 58.2461 167.827 57.827 168.33 57.4701C168.831 57.1102 169.375 56.8183 169.954 56.6244C170.534 56.4484 171.166 56.3624 171.768 56.5529C172.067 56.6426 172.348 56.7977 172.595 56.9998C172.835 57.2137 173.041 57.465 173.206 57.7438C172.988 57.5148 172.767 57.2972 172.513 57.1411C172.261 56.984 171.992 56.876 171.716 56.8155C171.162 56.6935 170.588 56.7856 170.041 56.9565C169.493 57.1332 168.964 57.399 168.451 57.7025C167.941 58.0126 167.439 58.3496 166.953 58.7243Z" fill="#5B090B"/>
<path d="M165.389 58.8192C165.315 58.1612 165.342 57.4853 165.472 56.8293C165.601 56.1754 165.848 55.5291 166.262 55.0127C166.471 54.759 166.718 54.5417 166.994 54.3846C167.273 54.2353 167.572 54.1411 167.873 54.103C168.479 54.0322 169.079 54.1604 169.631 54.3901C169.05 54.2897 168.464 54.2615 167.911 54.3701C167.36 54.4867 166.853 54.7799 166.49 55.2471C166.116 55.703 165.873 56.2895 165.703 56.9005C165.54 57.5162 165.434 58.1608 165.389 58.8192Z" fill="#5B090B"/>
<path d="M162.57 78.4744C162.507 77.7652 162.908 77.1071 163.503 76.8661C165.298 76.1407 169.373 74.825 172.144 76.4742C175.79 78.6436 168.968 81.58 166.51 81.5164C164.403 81.462 162.763 80.6572 162.57 78.4744Z" fill="#E78D73"/>
<path d="M173.043 75.3701C170.235 82.2887 167.426 89.207 164.618 96.1253C163.602 99.9218 162.688 104.896 162.685 110.743C162.681 117.82 164.012 123.71 165.346 127.931C167.242 127.96 169.404 127.872 171.764 127.563C176.199 126.981 179.852 125.811 182.577 124.697C181.861 122.125 180.898 118.232 180.187 113.421C179.592 109.396 179.416 106.37 179.318 104.69C178.902 97.5572 179.099 88.3097 177.705 77.0259C177.122 76.758 176.488 76.4916 175.804 76.2368C174.825 75.8731 173.897 75.5905 173.043 75.3701Z" fill="white"/>
<path d="M162.534 76.739C162.902 78.5412 163.368 81.0602 163.77 84.0894C164.165 87.0726 164.718 91.3532 164.618 96.0509C164.52 100.688 163.825 103.818 163.325 106.571C162.427 111.509 161.522 118.701 161.656 128.19C160.936 128.22 159.788 128.042 158.393 127.7C156.744 127.295 155.058 126.569 154.912 125.287C154.912 125.287 156.319 96.2668 156.322 95.6975C156.326 95.1281 157.704 79.7541 157.704 79.7541C157.704 79.7541 160.637 77.068 162.534 76.739Z" fill="white"/>
<path d="M171.86 104.531C171.687 104.511 171.355 104.503 171.08 104.727C170.74 105.005 170.664 105.495 170.631 105.867C170.577 106.493 170.122 111.705 171.929 112.282C172.14 112.35 172.534 112.402 173.14 112.048C173.261 112.065 173.362 112.045 173.443 111.989C174.05 111.567 173.522 109.081 171.86 104.531Z" fill="black"/>
<path d="M172.573 106.996C172.143 106.347 171.31 105.333 170.015 104.945C168.558 104.508 167.064 105.029 166.861 105.103C166.147 105.362 165.839 105.65 165.108 105.66C164.158 105.673 163.949 105.379 163.761 105.612C163.526 105.902 163.304 106.634 163.871 107.062C164.007 107.164 164.638 107.381 164.894 107.362C165.145 107.342 165.202 107.181 165.552 107.092C165.7 107.055 165.946 106.983 166.182 107.095C166.389 107.194 166.469 107.398 166.674 107.498C166.915 107.615 167.201 107.508 167.309 107.503C169.521 107.392 171.339 106.821 172.573 106.996Z" fill="#E78D73"/>
<path d="M173.871 110.347C173.871 110.347 169.676 113.493 168.343 113.987C167.009 114.482 164.772 114.516 163.791 114.72C162.81 114.925 162.81 114.925 162.573 114.217C162.336 113.509 165.907 112.981 165.907 112.981L165.946 112.649C165.946 112.649 163.081 112.597 162.138 112.469C161.196 112.341 160.998 111.301 160.998 111.301C160.924 111.292 160.815 111.278 160.684 111.258C160.03 111.158 159.7 111.103 159.564 110.886C159.46 110.721 159.483 110.511 159.505 110.422C159.691 109.683 161.817 109.615 165.352 109.527L165.391 109.195C165.391 109.195 162.128 109.377 160.76 109.238C160.703 109.233 160.653 109.227 160.602 109.22C160.222 109.168 159.994 109.077 159.87 108.962C159.787 108.885 159.76 108.799 159.752 108.778C159.747 108.767 159.68 108.585 159.737 108.427C159.804 108.242 160.011 108.166 160.09 108.137C160.654 107.931 166.828 107.132 167.232 107.081L173.707 106.271L173.871 110.347Z" fill="#E78D73"/>
<path d="M160.896 111.288C161.696 111.246 162.496 111.248 163.297 111.24L165.697 111.25C165.299 111.303 164.899 111.324 164.498 111.341C164.098 111.357 163.698 111.359 163.297 111.365C162.897 111.36 162.496 111.36 162.096 111.347C161.696 111.335 161.296 111.319 160.896 111.288Z" fill="#844B42"/>
<path d="M166.275 107.205C166.59 107.116 166.908 107.064 167.228 107.021C167.388 107.002 167.548 106.984 167.709 106.975C167.87 106.964 168.032 106.956 168.195 106.962C168.038 107.008 167.879 107.04 167.72 107.071C167.562 107.102 167.402 107.124 167.242 107.145C166.922 107.183 166.601 107.213 166.275 107.205Z" fill="#844B42"/>
<path d="M174.183 75.7637C174.183 75.7637 179.244 75.4787 180.963 78.9624C182.119 81.304 188.26 98.8161 189.761 104.526C191.262 110.236 174.796 112.678 172.262 112.419C172.512 111.824 172.935 110.601 172.832 109.027C172.679 106.673 171.456 105.158 171.08 104.727C174.206 103.419 177.332 102.111 180.457 100.804C178.852 95.9688 177.456 92.1883 176.468 89.604C174.573 84.6474 173.914 81.8874 174.005 76.3478C174.009 76.092 174.128 75.8916 174.183 75.7637Z" fill="white"/>
<path d="M164.466 103.726C164.407 103.726 164.351 103.685 164.328 103.617L161.107 94.0269L161.798 92.3354L160.501 90.1217C160.106 88.501 159.846 86.8422 159.729 85.1916C159.587 83.1983 159.453 81.3153 160.199 79.2408C160.42 78.6271 160.701 78.0379 161.036 77.4902C161.084 77.4132 161.176 77.3956 161.242 77.45C161.309 77.505 161.324 77.6122 161.277 77.6896C160.955 78.2166 160.684 78.7832 160.471 79.3735C159.753 81.3706 159.884 83.2127 160.023 85.1631C160.138 86.7824 160.392 88.4096 160.778 90.0003L162.138 92.3041L161.429 94.0403L164.604 103.492C164.634 103.58 164.596 103.68 164.52 103.714C164.502 103.722 164.484 103.726 164.466 103.726Z" fill="black"/>
<path d="M165.58 103.41C165.554 103.41 165.527 103.401 165.503 103.384C165.434 103.335 165.412 103.229 165.454 103.148L170.411 93.7172L170.053 91.6877L171.827 89.538C172.517 87.9159 173.083 86.2224 173.512 84.5034C174.027 82.4347 174.515 80.4806 174.197 78.1579C174.103 77.473 173.947 76.7985 173.732 76.1535C173.702 76.0648 173.74 75.9655 173.816 75.9311C173.893 75.8974 173.978 75.9407 174.007 76.0294C174.229 76.6971 174.391 77.3953 174.488 78.1042C174.816 80.5029 174.32 82.4928 173.795 84.5996C173.359 86.3465 172.783 88.0672 172.082 89.7147L172.056 89.7576L170.373 91.796L170.724 93.7815L170.693 93.8392L165.706 103.327C165.678 103.38 165.63 103.41 165.58 103.41Z" fill="black"/>
<path d="M173.089 104.114C173.027 104.114 172.97 104.068 172.949 103.996C172.923 103.906 172.965 103.809 173.042 103.779L180.227 100.966L175.862 86.3333C175.836 86.2435 175.876 86.1456 175.953 86.1146C176.031 86.0833 176.115 86.1308 176.141 86.2205L180.604 101.182L173.136 104.105C173.121 104.111 173.105 104.114 173.089 104.114Z" fill="black"/>
<path d="M183.821 102.737C183.789 102.737 183.756 102.725 183.729 102.7C182.168 101.246 180.437 101.236 180.417 101.246C180.347 101.239 180.269 101.171 180.269 101.076C180.268 100.981 180.334 100.903 180.415 100.902C180.486 100.901 182.27 100.902 183.913 102.431C183.977 102.49 183.987 102.598 183.936 102.673C183.907 102.715 183.864 102.737 183.821 102.737Z" fill="black"/>
<path d="M172.263 112.591C172.183 112.591 172.117 112.517 172.115 112.424C172.113 112.329 172.178 112.25 172.259 112.248C172.303 112.247 176.677 112.108 181.054 110.877C185.424 109.647 187.074 108.708 187.09 108.699C187.164 108.656 187.252 108.692 187.288 108.776C187.324 108.861 187.294 108.964 187.222 109.007C187.155 109.045 185.533 109.97 181.123 111.21C176.714 112.45 172.31 112.59 172.266 112.591C172.265 112.591 172.264 112.591 172.263 112.591Z" fill="black"/>
<path d="M155.696 112.546C155.693 112.546 155.691 112.546 155.689 112.546C155.608 112.542 155.545 112.462 155.548 112.367C156.011 99.436 156.973 85.5125 156.983 85.3733C156.989 85.2787 157.061 85.2089 157.142 85.2158C157.223 85.2234 157.284 85.3066 157.277 85.4011C157.268 85.54 156.306 99.4573 155.843 112.381C155.84 112.474 155.774 112.546 155.696 112.546Z" fill="black"/>
<path d="M149.096 111.532C149.042 111.532 148.989 111.497 148.964 111.436C148.174 109.55 146.187 109.189 146.167 109.185C146.087 109.172 146.031 109.084 146.043 108.99C146.054 108.896 146.129 108.83 146.21 108.845C146.297 108.86 148.369 109.233 149.228 111.285C149.264 111.37 149.234 111.473 149.161 111.515C149.14 111.527 149.118 111.532 149.096 111.532Z" fill="black"/>
<path d="M177.846 135.164C177.817 135.164 177.789 135.155 177.763 135.134C174.541 132.582 174.364 128.381 174.362 128.339C174.359 128.244 174.423 128.164 174.504 128.16C174.585 128.148 174.654 128.23 174.658 128.325C174.659 128.366 174.834 132.398 177.93 134.85C177.997 134.903 178.014 135.01 177.969 135.089C177.94 135.138 177.894 135.164 177.846 135.164Z" fill="black"/>
<path d="M162.449 64.7491C162.37 65.196 162.127 65.5154 161.907 65.4628C161.687 65.4102 161.572 65.0052 161.651 64.5583C161.73 64.1113 161.972 63.7919 162.192 63.8445C162.413 63.8971 162.527 64.3021 162.449 64.7491Z" fill="black"/>
<path d="M166.765 65.4349C166.686 65.8818 166.444 66.2012 166.223 66.1486C166.003 66.0956 165.888 65.6906 165.967 65.2441C166.046 64.7971 166.288 64.4777 166.509 64.5303C166.729 64.5829 166.844 64.9883 166.765 65.4349Z" fill="black"/>
<path d="M163.677 68.073C163.664 68.073 163.65 68.0709 163.636 68.0661C163.574 68.0452 163.256 67.921 163.116 67.5343C163.007 67.2358 163.068 66.9618 163.1 66.858C163.279 66.4492 163.432 66.0439 163.56 65.6327C163.71 65.1541 163.742 64.9265 163.786 64.6113C163.799 64.5222 163.812 64.427 163.829 64.318C163.844 64.2242 163.922 64.1619 164.001 64.1798C164.081 64.1967 164.134 64.2864 164.12 64.3796C164.103 64.4861 164.09 64.5797 164.077 64.6666C164.032 64.9877 163.997 65.2415 163.837 65.7503C163.705 66.1752 163.547 66.594 163.37 66.9945C163.358 67.0389 163.319 67.2125 163.387 67.3998C163.476 67.6432 163.678 67.7223 163.718 67.7357C163.796 67.7622 163.841 67.8574 163.819 67.9485C163.8 68.0242 163.741 68.073 163.677 68.073Z" fill="#844B42"/>
<path d="M163.957 70.3281C163.617 70.3281 163.28 70.2586 162.955 70.1215C162.878 70.0891 162.838 69.9905 162.866 69.9011C162.894 69.812 162.979 69.7667 163.055 69.7979C163.376 69.9334 163.709 69.9949 164.044 69.9826C164.677 69.9578 165.184 69.6694 165.499 69.4315C165.566 69.3792 165.658 69.4019 165.702 69.4817C165.747 69.5611 165.728 69.6676 165.659 69.7192C165.164 70.0943 164.609 70.304 164.054 70.3257C164.022 70.3274 163.989 70.3281 163.957 70.3281Z" fill="#844B42"/>
<path d="M168.643 63.4047C168.724 63.4367 168.786 63.3095 168.722 63.2397C168.391 62.8808 167.824 62.298 166.28 61.9161C165.202 61.6493 165.255 62.6549 165.659 62.6828C166.54 62.7436 167.658 63.018 168.643 63.4047Z" fill="#250705"/>
<path d="M163.028 62.4012C162.419 62.274 161.675 62.2173 160.927 62.2341C160.926 62.108 160.932 61.9752 160.939 61.8394C160.941 61.78 160.944 61.714 160.947 61.6476C161.348 61.539 161.872 61.4668 162.578 61.4871C163.68 61.5204 163.427 62.4851 163.028 62.4012Z" fill="#250705"/>
<path d="M169.55 66.1991C169.55 66.1991 170.689 64.3158 171.913 64.9607C173.137 65.6057 172.256 67.5688 171.195 68.2753C170.135 68.9818 169.52 68.9536 169.52 68.9536L169.55 66.1991Z" fill="#E78D73"/>
<path d="M171.04 67.629C170.948 67.629 170.856 67.5781 170.799 67.4832C170.705 67.3282 170.737 67.1137 170.87 67.0043C171.331 66.6268 171.459 66.1503 171.375 65.9513C171.346 65.8818 171.275 65.8179 171.175 65.7701C171.024 65.6979 170.952 65.4971 171.014 65.3214C171.076 65.1454 171.249 65.0626 171.399 65.1341C171.636 65.2472 171.81 65.4249 171.905 65.648C172.15 66.228 171.858 67.0349 171.21 67.5664C171.158 67.6084 171.099 67.629 171.04 67.629Z" fill="#844B42"/>
</g>
<mask id="mask7_121_1492" style="mask-type:luminance" maskUnits="userSpaceOnUse" x="14" y="20" width="209" height="198">
<path d="M19.5483 144.287C26.5592 133.671 36.6462 136.156 43.9733 123.665C44.8726 122.132 52.3012 108.993 48.4678 96.8007C44.1654 83.1158 30.5054 79.5413 29.3661 64.6689C29.3661 64.6689 29.0385 60.3934 30.2087 55.9776C36.4907 32.2724 106.619 6.11376 162.517 28.5865C169.803 31.516 191.275 40.4548 206.338 61.5083C223.137 84.9881 222.591 110.433 222.069 134.727C221.643 154.586 221.43 164.516 215.327 175.55C199.374 204.396 165.091 211.036 142.759 214.617C97.9045 221.811 28.1637 216.002 16.6617 179.69C14.1123 171.641 12.2732 155.303 19.5483 144.287Z" fill="white"/>
</mask>
<g mask="url(#mask7_121_1492)">
<path d="M127.314 166.557L127.219 164.986L125.03 160.673C124.557 159.74 123.523 159.43 122.721 159.982L118.844 162.652C118.042 163.204 117.777 164.408 118.25 165.342L120.449 169.674L121.64 170.464L127.314 166.557ZM119.493 165.196C119.334 164.882 119.423 164.477 119.692 164.292L123.692 161.537C123.961 161.352 124.309 161.456 124.468 161.77L125.247 163.304C125.406 163.618 125.317 164.022 125.047 164.208L121.048 166.962C120.778 167.147 120.431 167.044 120.272 166.73L119.493 165.196Z" fill="#374866"/>
<path d="M121.656 170.453L130.412 187.706L132.451 186.276L127.308 166.587L121.656 170.453Z" fill="#AEACB1"/>
<path d="M120.244 175.973L116.635 173.992L117.759 171.214L121.368 173.195C121.54 173.29 121.614 173.53 121.533 173.73L120.703 175.781C120.622 175.982 120.416 176.068 120.244 175.973Z" fill="#02102B"/>
<path d="M125.33 176.691L120.763 174.184L120.558 174.689L125.126 177.196L125.33 176.691Z" fill="#02102B"/>
<path d="M113.308 172.67L111.004 171.405L108.564 177.435L110.868 178.7L113.308 172.67Z" fill="#02102B"/>
<path d="M117.569 175.817L109.886 171.598L111.776 166.925L119.46 171.144C120.157 171.526 120.455 172.494 120.127 173.305L119.425 175.04C119.096 175.851 118.266 176.199 117.569 175.817Z" fill="#02102B"/>
<path d="M115.306 174.574L106.724 169.863C106.404 169.687 106.267 169.242 106.418 168.87L107.762 165.547C107.913 165.174 108.295 165.014 108.615 165.19L117.197 169.902L115.306 174.574Z" fill="#5B090B"/>
<path d="M110.216 168.693C110.008 169.207 109.481 169.428 109.04 169.185C108.598 168.943 108.409 168.329 108.617 167.815C108.825 167.301 109.352 167.08 109.793 167.323C110.235 167.565 110.424 168.179 110.216 168.693Z" fill="#02102B"/>
<path d="M111.222 182.454L105.913 179.539C105.598 179.366 105.463 178.928 105.611 178.56L106.252 176.975C106.401 176.608 106.777 176.451 107.092 176.623L112.402 179.538C112.717 179.711 112.852 180.149 112.703 180.517L112.062 182.102C111.913 182.469 111.537 182.627 111.222 182.454Z" fill="#02102B"/>
<path d="M131.268 175.355H129.27V167.259C129.27 166.299 128.6 165.518 127.776 165.518H118.181C117.357 165.518 116.687 166.299 116.687 167.259V174.915H114.689V167.259C114.689 165.017 116.256 163.192 118.181 163.192H127.776C129.701 163.192 131.268 165.016 131.268 167.259V175.355Z" fill="#FBAE2C"/>
<path d="M140.325 176.902L139.972 182.022L139.1 194.63C138.943 196.896 137.75 198.61 136.33 198.61H108.924C107.504 198.61 106.311 196.895 106.154 194.63L105.159 180.226L104.929 176.902H140.325Z" fill="#FBAE2C"/>
<path d="M140.325 176.902L139.972 182.022L105.159 180.226L104.929 176.902H140.325Z" fill="black"/>
<path d="M141.03 178.486H104.223C103.669 178.486 103.219 177.962 103.219 177.315V175.134C103.219 174.488 103.669 173.964 104.223 173.964H141.03C141.585 173.964 142.035 174.488 142.035 175.134V177.315C142.035 177.961 141.585 178.486 141.03 178.486Z" fill="#FBAE2C"/>
</g>
<path d="M18.8756 131.272C23.4642 135.267 33.0214 130.375 38.4589 124.132C43.4339 118.421 48.4588 107.561 45.0024 98.0965C44.5936 96.9767 41.9148 89.6428 35.5131 88.3818C31.0976 87.512 25.7682 89.6999 23.994 93.9881C21.6246 99.7151 27.7778 103.918 26.0134 111.211C24.1738 118.815 16.0348 120.233 16.432 126.305C16.6253 129.257 18.6923 131.113 18.8756 131.272Z" fill="#DFECF4"/>
</svg>
